<?xml version="1.0" encoding="UTF-8"?>
<svg id="Layer_1" xmlns="http://www.w3.org/2000/svg" version="1.1" viewBox="0 0 512 512">
  <!-- Generator: Adobe Illustrator 30.1.0, SVG Export Plug-In . SVG Version: 2.1.1 Build 136)  -->
  <defs>
    <style>
      .st0 {
        fill: #d29f54;
      }

      .st1 {
        fill: #f5e8c9;
      }

      .st2 {
        fill: #deb565;
      }

      .st3 {
        fill: #e5c68d;
      }

      .st4 {
        fill: #f7edd5;
      }

      .st5 {
        fill: #f8efdb;
      }

      .st6 {
        fill: #fbf7ed;
      }

      .st7 {
        fill: #f3e3be;
      }

      .st8 {
        fill: #dbb06c;
      }

      .st9 {
        fill: #dfb665;
      }

      .st10 {
        fill: #ddb263;
      }

      .st11 {
        fill: #d2a056;
      }

      .st12 {
        fill: #e4be6b;
      }

      .st13 {
        fill: #efdaa7;
      }

      .st14 {
        fill: #dfb565;
      }

      .st15 {
        fill: #c2843a;
      }

      .st16 {
        fill: #ddb262;
      }

      .st17 {
        fill: #ebd3a6;
      }

      .st18 {
        fill: #d9ad67;
      }

      .st19 {
        fill: #e1bd7f;
      }

      .st20 {
        fill: #e6c994;
      }

      .st21 {
        fill: #d19d53;
      }

      .st22 {
        fill: #ddb574;
      }

      .st23 {
        fill: #d3a259;
      }

      .st24 {
        fill: #e5c68e;
      }

      .st25 {
        fill: #cb9348;
      }

      .st26 {
        fill: #ce994f;
      }

      .st27 {
        fill: #d3a157;
      }

      .st28 {
        fill: #e9cf9f;
      }

      .st29 {
        fill: #e1bb69;
      }

      .st30 {
        fill: #faf4e6;
      }

      .st31 {
        fill: #c18238;
      }

      .st32 {
        fill: #d5a559;
      }

      .st33 {
        fill: #e3be6c;
      }

      .st34 {
        fill: #c3853c;
      }

      .st35 {
        fill: #e5c58e;
      }

      .st36 {
        fill: #c68b41;
      }

      .st37 {
        fill: #e3c186;
      }

      .st38 {
        fill: #d09c51;
      }

      .st39 {
        fill: #d3a155;
      }

      .st40 {
        fill: #daae5f;
      }

      .st41 {
        fill: #cd974c;
      }

      .st42 {
        fill: #ddb471;
      }

      .st43 {
        fill: #dbb061;
      }

      .st44 {
        fill: #ecd6ab;
      }

      .st45 {
        fill: #cc964b;
      }

      .st46 {
        fill: #d5a458;
      }

      .st47 {
        fill: #f0ddb8;
      }

      .st48 {
        fill: #e2bb69;
      }

      .st49 {
        fill: #dfb979;
      }

      .st50 {
        fill: #f6ead0;
      }

      .st51 {
        fill: #d8aa5b;
      }

      .st52 {
        fill: #c88e44;
      }

      .st53 {
        fill: #ca9147;
      }

      .st54 {
        fill: #fcfaf4;
      }

      .st55 {
        fill: #dbae60;
      }

      .st56 {
        fill: #fefefe;
      }

      .st57 {
        fill: #d7a962;
      }

      .st58 {
        fill: #f4e6c4;
      }

      .st59 {
        fill: #f9f1e0;
      }

      .st60 {
        fill: #eed8af;
      }

      .st61 {
        fill: #e0b867;
      }

      .st62 {
        fill: #e5c16e;
      }

      .st63 {
        fill: #daad5f;
      }

      .st64 {
        fill: #e8cb97;
      }

      .st65 {
        fill: #d5a55c;
      }

      .st66 {
        fill: #d6a659;
      }

      .st67 {
        fill: #d8a95c;
      }

      .st68 {
        fill: #c5883e;
      }

      .st69 {
        fill: #dcb263;
      }

      .st70 {
        fill: #eed9b1;
      }

      .st71 {
        fill: #fdfcf9;
      }

      .st72 {
        fill: #f0ddaf;
      }

      .st73 {
        fill: #f2e0b7;
      }

      .st74 {
        fill: #e2bc6a;
      }

      .st75 {
        fill: #f4e5c3;
      }

      .st76 {
        fill: #e1be82;
      }

      .st77 {
        fill: #f2e1c1;
      }

      .st78 {
        fill: #dbb16d;
      }

      .st79 {
        fill: #d19e53;
      }
    </style>
  </defs>
  <path class="st62" d="M340.86,435.26c-2.43.09-3.75-3.28-3.63-5.45-2.24-2.19-3.63-5.06-4.15-8.62l-.04-1.57s22.6-13.25,67.79-39.76c23.49-16.34,32.64-37.84,35.69-65.35l-.28-108.78c-1.05-27.8-10.53-57.12-35.41-72.32-26.81-15.9-54.14-31.77-82-47.63-18.92-13.25-46-26.67-69.66-22.77-25.19,4.16-46.42,16.67-67.78,30.06l-29.45,16.21-2.17-.24c-2.55-1.81-4.47-4.61-5.76-8.39l-3.09-4.75.48-1.79,70.9-41.33c27.36-15.95,60.25-15.8,87.58-.03l111.96,64.58c25.61,14.77,42.33,42.07,42.32,71.91l-.05,134.03c-.01,29.81-17.14,56.81-42.66,71.46l-70.59,40.51Z"/>
  <path class="st52" d="M205.08,454.63c-2.68-1.75-6.7-3.03-8.94-5.31.53-1.34.18-5.42-.12-8.77-.59-6.4-1.34-12.05-3.42-18.2-9.43-27.85-26.43-46.7-45.5-67.55-31.13-31.07-61.32-63.31-87.62-98.26l-.94-2.32c-.51-.91-.5-1.84,0-2.74-.54-4.18-.55-9.45.04-13.74,1.36-.77,2.22-.38,2.98.9,5.08,7.21,10.4,14.2,15.96,20.99,4.32,8.66,10.81,15.79,18.22,22.15,5.62,7.08,11.46,13.9,17.52,20.46,20.74,20.93,40.93,42.44,60.55,64.54,3.54,7.93,9.56,15.44,15.59,21.51,9.42,14.67,16.19,31.21,18,48.73.2,1.9,1.72,17.73-.62,17.96-.64.06-1.18.11-1.7-.37Z"/>
  <path class="st68" d="M187.22,444.38c-2.9-1.73-5.75-3.82-8.71-5.25l-1.37-2.17c-3.42-20.69-17.54-37.81-30.71-53.17-18.79-19.94-37.86-39.62-57.07-59.15-9.49-10.43-20.35-22.52-28.88-33.56-.81-1.05-1.47-2.23-1.95-3.34-.48-5.73-.49-11.8.3-17.47l1.87-.26c25.08,31.53,52.44,61.35,81.46,89.39,4.32,5.26,8.73,10.38,13.23,15.36,10.68,12.35,22.49,26.47,28.31,41.92,2.34,6.22,6.78,19.72,6.29,25.94-.18,2.32-.39,2.77-2.77,1.76Z"/>
  <path class="st26" d="M206.98,376.71c3.87,3.49,6.21,7.46,8.12,12.19,4.77,5.64,8.39,11.77,10.85,18.42,9.66,18.52,12.87,39.66,13.99,59.98-.46,1.34-1.81,1.73-4.06,1.2-2.55-.48-4.59-1.11-6.88-2.22l-1.3-.88c1.61-13.3,1.45-27.96-4.29-40.27-.9-5.47-2.81-10.63-5.09-15.66-9.28-20.49-22.86-38.42-36.71-55.62-4.62-8.87-10.87-16.65-17.85-23.83-10.48-15.07-22.82-28.59-35.64-41.77-1.69-1.74-3.43-2.81-5.54-3.99l-21.54-25.43c-6.74-11.38-14.55-22.09-23.43-32.13l-5.48-9.27c-4.88-5.7-9.34-11.66-13.38-17.85-.47-2.54-1.12-15.58.12-16.22,1.02-.52,2.63.85,3.37,1.58,4.2,5.08,8.41,10.17,12.64,15.27,3.54,6.26,6.97,12.55,10.28,18.87l7.69,9.17,2.64,6.62c8.96,11.68,17.73,23.5,26.3,35.45,11.46,10.61,22.36,21.99,32.71,34.14,6.64,9.15,13.53,18.06,20.68,26.73,9.55,15.23,19.58,31.01,31.85,44.04l-.02,1.49Z"/>
  <path class="st31" d="M151.61,423.86l-50.89-29.11c-24.13-13.8-43.07-38.68-42.35-65.97-.38-1.88-.45-4.42.16-6.16,1.16-1.95,2.81-.88,4.97,3.22,4.8,4.99,9.29,10.28,13.46,15.88,14.91,14.27,29.77,29.05,43.87,43.94.53.56.97,1.7,1.17,2.48.68.15,1.47.68,1.95,1.18,9.23,9.75,18.45,19.61,27.43,29.51,1.82,1.94,4.39,6.33.24,5.01Z"/>
  <path class="st53" d="M212.54,458.73c-2.71-1.08-5.03-2.52-7.46-4.1,3.83-.83,0-26.74-1.12-30.23l-4.36-13.6-4.63-10.27c-1.01-2.24-1.78-3.88-3.4-5.7-1.88-2.11-2.37-5.6-4.81-7.34-1.31-.94-2.03-1.32-2.85-2.8-2.64-4.76-7.2-8.55-9.58-13.46-1.26-2.59-1.6-4.58-3.96-6.53-1.31-1.08-13.21-15.44-18.58-20.39-3.39-3.13-6.14-6.48-9.26-9.72l-13.89-14.41-16.38-17.01-4.6-5.01-5.04-5.82c-3.59-4.15-6.66-8.96-10.85-12.5s-7.72-7.01-10.71-11.91c-1.22-1.99-2.89-3.42-3.76-5.87-.92-2.59-3.81-4.19-5.14-6.57-3.17-5.68-9.1-11.62-10.75-14.54-.76-1.34-1.63-2.63-2.83-3.22-.67-2.9-.59-7.12-.04-10.21.71-1.6,1.67-1.33,2.72-.07,10.83,14.4,21.63,28.82,32.41,43.24l6.48,6.11c18.62,21.1,37.7,41.61,57.24,61.53l1.46,2.71c11.71,11.81,22.76,24.83,32.2,38.66,11.82,17.32,21.01,36.76,23.96,57.98.12,6.82-.21,13.59-.99,20.29l-1.48.74Z"/>
  <path class="st34" d="M178.51,439.13c-3.09-1.5-8.55-4.33-11.03-6.35-3.12-7.72-6.97-15.91-12.36-22.75-22.98-26.81-47.02-52.4-72.12-76.76-8.4-9.6-16.56-19.31-24.48-29.11-.58-1.97-.55-4.22,0-6.16-.61-2.96-.56-7.15,0-10.26,1.67-.32,2.09,1.39,3.02,2.48l7.84,9.23c.33.39,13.1,15.12,11.58,13.71,3.59,3.34,6.33,6.84,9.42,10.57-.23-.28,10.78,11.06,11.87,12.17l14.1,14.4c1.56,1.59,12.23,12.61,12.53,12.82,1.62,1.13,2.21,2.76,3.47,4.07l15.11,15.7,5.47,6.87c2.52,3.17,5.07,5.78,7.47,9.12l5.09,7.09c6.51,9.07,10.89,19.02,12.83,30.18.17,1,1.65,2.45.19,2.98Z"/>
  <path class="st25" d="M218.19,462.06c-2.3-.38-3.73-2.57-5.66-3.33l.88-6.75c.62-4.76-.67-9.54.24-14.21-3.2-14.53-5.93-28.75-14.01-41.25l-3.17-4.91-4.02-7.04c-2.82-4.94-6.23-9.26-9.65-13.77l-5.27-6.95c-3.54-4.67-7.42-8.92-11.66-13.13-2.63-3.03-4.74-6.41-8.12-8.91-.46-2.55-2.89-3.53-4.12-5.34-2.79-4.07-10.56-10.74-13.52-13.95l-9.19-9.97c-3.44-3.73-6.94-7.11-10.36-10.81l-6.29-6.8c-1.75-1.89-3.27-4.08-4.99-5.92-2.3-2.45-4.47-4.57-6.62-7.22-6.85-8.45-7.09-6.26-11.33-11.83l-7.97-10.47c-3.14-4.13-6.35-7.81-8.94-12.35-1.76-3.1-4.03-5.94-6.23-8.73l-8.15-10.32c-.41-.52-1.12-.49-1.49-.57-.56-1.64-.6-3.85,0-5.47-.5-1.39-.55-4.14.29-5.36l1.56-.35s5.17,6.54,15.52,19.62c.9,3.23,2.59,5.79,5.06,7.7,10.26,14.06,21.22,27.65,32.89,40.76,1.76.9,3.09,2.36,4,4.36,13.52,13.11,26.67,26.54,39.47,40.3,2.34,4.11,5.32,7.64,8.94,10.61,5.7,5.91,10.56,12.33,14.58,19.27,9.07,10.25,16.49,21.86,23.28,33.65,10.01,17.39,17.05,31.53,17.05,53.19,0,3.54-.09,12.6-1.81,14.99-.33.46-.73.86-1.16,1.25Z"/>
  <path class="st45" d="M222.33,463.66c-1.41.24-2.89-1.39-4.13-1.6,2.78-14.5,1.91-27.15-2.37-41.9-.94-3.26-1.63-6.05-3.3-9.13l-9.36-17.29c-1.57-2.91-4.22-5.37-5.12-8.49-.33-1.16-10.31-15.9-11.52-17.34l-6.24-7.39c-2.24-2.65-2.76-5.77-5.4-8.45-4.13-4.21-7.03-9.64-11.87-13.36-3.5-2.7-4.91-6.92-7.81-9.94-2.17-2.26-3.85-4.94-6.25-6.82s-3.85-3.72-5.91-5.85l-12.06-12.47c-2.51-2.6-4.85-4.52-7.35-7.03l-6.83-6.88c-1.07-1.08-1.25-3.15-3.09-3.74s-8.44-9.79-9.27-10.65c-2.82-2.89-4.91-5.78-7.58-8.91l-6.89-8.12c-1.88-2.22-2.61-4.66-5.02-6.65-2.69-2.23-3.91-6.84-6.79-8.67-2.57-1.64-1.76-3.55-3.01-5.57-3.08-4.96-12.31-16.5-16.37-20.7-.75-2.48-.75-5.81-.18-8.37,1.67-.6,3.27.4,4.79,3,12.47,16.14,24.66,32.41,36.58,48.8,2.88,2.17,5.08,5.12,6.61,8.86,6.89,5.79,13.04,12.26,18.46,19.4,12.59,12.8,24.9,25.92,36.93,39.37,3.79,4.01,6.95,8.38,9.46,13.08l29.28,37.74c1.65,4.64,4.11,8.74,7.39,12.29,9.59,18.39,18.79,40.13,17.89,61.28-.05,1.26-1.24,11.33-1.94,11.63-.58.26-1.18.15-1.73-.13Z"/>
  <path class="st41" d="M229,466.27c-2.01-.98-5.09-.59-6.67-2.61,1.48-1.03.99-3.08,1.36-4.72,1.73-7.71,1.45-19.78-1.01-27.28-4.88-14.83-1.38-8.65-8.51-25.12l-3.24-7.48c-1.71-3.96-3.55-7.57-6.65-10.66-2.78-2.77-3.06-7.28-5.47-10.15l-3.23-3.84-9.89-13.28-15.34-19.47c-1.28-1.63-1.76-3.61-3.03-5.28-3.77-4.93-7.76-9.36-11.86-14.08l-5.13-5.9c-2.29-2.63-5.48-4.48-7.44-7.44-1-1.52-6.84-6.3-9.41-9.83-1.86-2.55-3.79-4.28-6.04-6.4-8.49-8.02-9.26-12.67-21.39-22.41-2.36-1.9-2.68-6.62-5.54-8.09-1.85-.95-2.02-2.09-3.04-3.71-1.88-2.98-7.62-10.56-9.96-13.39l-5.26-6.35c-3.46-4.18-9.04-12.75-14.62-19.65-2.1-2.59-6.81-9.6-8.99-10.81-.62-2.42-.59-6.25.11-8.77-1.83-5.03,16.97,21.24,14.07,16.33l5.92,10.02c.2.33,13.17,16.29,13.43,16.64l3.98,5.46c6.94,9.51-.84,2.08,9.99,14.82l17.59,20.68c4.2,1.59,6.53,5.18,9.42,8.38,3.46,3.82,8.19,8.1,10.56,10.85l12.55,14.56,6.85,9.73c4.91,6.97,6.59,6.64,10.04,11.05,1.69,2.17,2.67,5.11,4.63,7.06s2.8,3.45,3.84,5.88c1.64,3.85,5.03,6.75,7.73,9.89.44.51,7.68,11.54,8.76,12.4,2.89,2.29,3.89,5.1,5.86,7.84,3.21,4.48,5.31,9.28,8.12,13.97,5.23,8.71,11.06,19.36,12.54,29.46,3.22,2.55,5.74,24.95,5.54,27.33l-1.18,14.36Z"/>
  <path class="st36" d="M196.13,449.31c-1.1-.22-2.65-1.2-3.59-1.77l-1.37-2.02c.13-27.91-16.67-50.93-33.77-71.08-6.09-7.18-12.54-13.98-19.12-20.82-27.64-28.11-55.17-56.79-78.52-88.45l-1.23-2.75c-.6-2.38-.56-5.76,0-8.21,3.22,1.7,5.02,5.36,7.37,8.35l11.18,14.2,7.25,8.6,8.4,9.94,9.28,10.58c3.43,3.92,6.9,7.64,10.51,11.41l9.66,10.07,3.39,3.58,15.3,15.47c3.27,3.3,6.35,6.27,9.32,9.88,1.04,1.27,2.21,2.93,3.37,4.06,4.06,3.95,7.41,8.01,11.06,12.28l4.76,5.56c11.42,13.34,19.81,28.58,25.07,45.47,2.58,8.28,3.27,16.7,3.06,25.43-.01.45-1.39.22-1.37.21Z"/>
  <path class="st38" d="M211.25,377.34c.6.82.59,1.29-.01,1.43-.99,1.65-2.41.96-4.26-2.06-2.24-.86-3.33-3.14-5.02-5.15l-2.51-3c-4.58-5.48-9.12-11.23-12.99-17.2l-6.63-10.23c-1.52-2.35-2.62-4.32-4.03-6.54-3.2-5.06-7.33-9.31-11.04-14.21-7.34-9.71-14.12-19.67-23.07-27.95-5.31-4.91-13.45-15.55-17.06-17.82-4.04-2.55-5.96-6.08-8.31-9.85-4.61-7.38-19.47-23.91-22.23-29.56-1.2-2.46-1.25-5.04-3.13-7.17-2.63-2.98-5.74-5.94-7.71-9.42-1.44-2.55-1.91-5.34-3.94-7.71-1.89-2.19-3.04-4.92-4.26-7.51-2.43-5.17-6.69-8.69-10.26-12.89-1.92-2.26-3.01-5.21-6.24-6.26-.22,5.51.24,10.43.18,15.33l-.11,8.77c-.04,2.8.33,5.59.18,8.37l-.29,5.36c-.19.6-.42.59-.68,0l.13-36.86c.02-4.25,1.11-8,1.95-11.66.27-.59.83-1.22,1.37-1.03,3.06,1.1,13.58,12.71,14.11,16.73,2.32,5.59,4.72,11.12,8.9,15.66,2.09,6.41,4.86,11.25,9.27,16.41,2.5,5.5,5.39,10.79,8.66,15.88,12.87,16.01,25.74,32.12,38.63,48.31,12.36,12.81,23.33,26.56,33.3,41.1,5.07,5.49,9.71,11.36,13.93,17.63,7.72,10.49,15.49,20.92,23.31,31.28l-.15,1.83Z"/>
  <path class="st15" d="M162.68,430.06c-2.95-1.15-8.11-4.5-11.07-6.2,5.02,1.37-9.98-13.64-10.81-14.51l-7.01-7.29c-3.22-3.35-9.19-11.42-12.79-13.05-1.84-4.67-5.7-7.58-9.1-10.92l-4.09-4.03c-3.17-3.12-5.53-6.13-8.86-9.13-3.76-3.38-7.67-6.89-11.08-10.64-1.99-2.19-4.03-3.75-6.04-5.74-1.31-1.3-2.27-2.59-3.75-3.84-4.51-3.8-7.29-9.43-11.52-13.67-2.25-2.25-4.48-4.2-5.92-7.1-.45-.9-1.38-1.25-2.11-1.3-.46-3.63-.52-7.57.2-11.15.62-1.17,1.28-1.4,2.08-.38,6.8,8.81,14.17,17.1,22.13,24.86,4.54,6.13,9.86,11.28,15.51,16.26,16.01,16.36,31.99,32.95,47.94,49.78,4.48,6.19,9.09,12.14,13.82,17.85l1.75,4.46c3.12,3.38,3.36,5.3.72,5.75Z"/>
  <path class="st36" d="M192.54,447.55l-5.32-3.17c.71.16,1.06-.17,1.24-.53.41-.84.03-1.84-.08-2.73-1.32-10.97-4.19-21.61-9.46-31.42l-3.34-6.22c-2.99-5.57-7.25-10.12-10.78-15.3-2.99-4.39-6.26-8.09-9.96-11.96-1.65-1.73-2.61-4.1-4.77-5.45s-3.22-3.67-4.75-5.49l-3.19-3.8c-3.6-4.29-9.55-8.98-13.25-13.37-.67-.79-11.54-11.68-12.61-12.65-1.99-1.8-3.5-3.7-5.38-5.63l-5.08-5.19-7.74-8.62c-3.14-3.5-6.55-6.57-9.55-10.3-4.11-5.1-6.69-7.86-10.93-13.03l-10.49-12.81c-2.78-3.4-4.87-7.09-8.27-9.58-.98-1.76-.73-5.62-.3-7.85,2.04.97,3.14,3.1,4.6,5.01l5.91,7.78,20.42,24.65c4.2,5.06,8.63,9.16,11.9,13.71,1.06,1.47,2.97,2.88,4.41,4.38l33.51,34.74,12.02,12.64c1.1,1.16,1.27,2.59,2.98,3.4,2.29,1.09,3.16,4.2,5.04,5.72,2.23,1.81,3.45,3.87,5.1,6.04l6.71,8.82c5.23,6.88,9.86,13.8,13.21,21.92l3.53,8.56c3.55,8.6,4.77,19.05,4.67,27.77Z"/>
  <path class="st15" d="M167.49,432.78c-1.09-.89-3.5-2.21-4.81-2.72,1.21-1.65-.18-2.88-1.36-4.23-1.44-1.65-1.28-4.92-3.18-6.24-2.1-1.45-2.74-3.13-3.99-5.08-5.27-8.23-11.89-15.37-18.88-22.11l-4.87-4.69c-2.29-2.2-4.09-4.48-6.22-6.9l-5.43-6.15c-2.16-2.45-4.61-4.41-6.94-6.82l-8.36-8.69c-1.63-1.69-3.11-2.52-4.58-4.45-1.76-2.31-9.78-8.62-12.63-12.5s-5.55-6.98-9.36-9.91c-1.48-1.14-2.72-3.31-4.03-4.81l-5.12-5.84-8.07-9.78c-.28-.34-.69-.36-.94-.38-.83-1.83-.68-5.24-.2-7.32,1.48-.09,2.16,1.22,3.16,2.36l12.18,13.78,10.16,12.05,8.63,8.88,3.84,3.63,21.98,22.53c4.48,4.59,9.47,9.66,13.77,14.33l7.91,8.58,7.37,8.3c7.68,8.65,14.47,17.63,19,28.25.85,2,2.07,4.34.97,5.94Z"/>
  <path class="st21" d="M185.88,338.47l1.6-.03c5.77,8.31,11.6,16.59,17.5,24.84,3.2,3.15,6.21,6.54,9.02,10.15,2.91,3.33,4.45,6.87,4.62,10.62-.32.24-.64.44-.99.48-.48.05-6.12-5.99-6.38-7.19-1.94-1.93-3.46-4.07-4.8-6.76-1.72-3.45-5.74-5.6-7.23-9.04s-3.88-5.57-6.04-8.49l-6.02-8.15-7.24-10.13c-6.07-8.5-2.6-.94-9.49-11l-8.36-12.22c-2.01-2.93-15.17-18.3-18.4-21.29-9.28-8.63-15.77-19.19-23.68-28.9l-9.33-11.45c-4.71-5.79-9.73-11.19-13.47-18.14-2.32-4.33-3.79-9.19-7.27-13.17-7.16-8.19-2.7-7.43-9.13-16.7-2.09-3.02-4.88-5.97-5.14-9.82-.27-4.08-4.4-7.39-5.55-8.94-1.47-1.98-2.6-3.47-4.68-5.03-1.95-1.46-2.97-4.18-5.51-4.55.45-1.95,1-4.13,1.35-6.12.55-.29,1.19-.57,1.82-.41,2.5.64,16.15,16.86,13.95,21.58,2.44,3.42,4.42,7.11,5.92,11.07,5.86,6.2,11.86,13.76,14.09,22.2,6.47,8.47,12.12,17.55,17.48,26.78,6.96,8.29,13.54,16.87,19.73,25.73,6.19,5.92,12.45,11.93,17.02,19.31,9.28,10.69,18.13,21.81,26.56,33.34,2.34,4.22,5.02,8.04,8.04,11.44Z"/>
  <path class="st27" d="M94.81,191.29c-.23,1.07-.87.84-1.93-.67-1.61.39-3.32-.09-2.99-2.02-1.25.8-2.76.09-4.52-2.14,2.73,5.48,5.88,10.76,9.44,15.84,4.94,11.16,10.76,21.74,17.48,31.75,1.34,3.02,3.19,5.82,5.56,8.41,3.69,6.89,8.45,13.25,14.28,19.07,8.07,11.08,16.94,21.55,26.63,31.41,1.42,1.84,1.48,3.23.18,4.15l-1.14.17-5.39-5.34c-.62.25-1.58.62-1.9.25-4.63-6.58-10.42-12.23-16.19-17.74-6.22-8.94-12.86-17.58-19.93-25.91-2.74-5.22-5.87-10.21-9.37-14.97-5.89-10.53-12.1-20.81-18.61-30.86-3.8-7.93-7.87-15.7-12.21-23.33l-.28-5.78c-3.26-4.08-6.48-8.29-9.68-12.61l-.12-1.75,3.42-6.98,2.47.51c9.15,11.57,17.78,23.36,25.88,35.38.7,1.56.73,2.66-1.07,3.15Z"/>
  <path class="st67" d="M94.4,148.03l1.06,1.95c-2.69,14.22,1.33,20.74,12.37,28.92,3.28,2.43,6.86,4.59,10.35,6.67l.54,1.73c4.48,6.83,8.97,13.67,13.47,20.55.9,1.68,1.49,3.22-.6,3.92-1.11,2.43-3.45-.48-4.59-1.99-1.26.68-2.58,0-3.96-2.02-1.2.61-2.22-.49-2.93-1.53-1.38,1.02-2.35.27-2.1-1.36-1.83.86-3.66-.75-4.07-2.61-.57.06-.58-.11-.08-.47-.78-.75-1.33-1.75-1.64-3.01-12.47-18.61-25.24-37.07-38.33-55.39l-.21-1.37c2.31-3.9,5.24-6.8,8.27-10.12l1.72-.55c3.88,4.86,7.71,9.77,11.49,14.74.03.69-.23,1.35-.77,1.97Z"/>
  <path class="st32" d="M113.86,201.78c-1.65,1.78-6.41-1.41-6.67-3.53-2.22.93-6.46-.47-6.81-3.41-1.48,1.65-6.04-1.55-5.57-3.56.6-1.86-.53-3.44-1.72-5.07l-10.43-14.35c-4.95-6.81-9.02-13.86-15.13-19.63,1.83-3.72,4.11-6.77,6.15-10.23,1.13-1.13,6.7,7.59,7.53,8.86l5.99,9.05c5.03,7.6,9.84,14.15,14.84,21.49l11.35,16.66c.78,1.14,1.02,2.83.47,3.71Z"/>
  <path class="st0" d="M152.4,291.92l6.39,6.65c9.45,12.54,18.69,25.33,27.73,38.35l-.63,1.54c-1.78.73-1.71-1.58-2.54-2.32-2.19-1.97-2.95-4.15-4.45-6.5-2.95-4.64-6.37-9.14-10.04-13.21-1.78-1.97-3.79-2.78-4.66-5.77-.39-1.32-2.74-1.97-3.53-3.28-1.63-2.67-2.94-5.54-5.29-7.6-3.75-3.3-7.02-6.85-8.89-11.54l-12.68-13.49-9.92-12.91c-2.25-2.93-3.53-6.39-6.14-8.8l-4.51-4.15c1.72,1.59-8.46-14.43-9.52-15.87l-7.9-10.71c-.48-4.04-2.42-7.56-5.03-10.54-1.83-2.09-2.92-4.35-4.37-6.62-1.28-2-3.94-3.15-4.92-5.4-1.62-3.71-3.14-7.38-5.69-10.76.36-5.1-2.07-8.91-5.45-12.34-3.11-3.16-5.45-6.97-9.06-9.24.51-2.92,1.59-5.68,2.83-8.2,1.95,1.02,2.68,3.37,4.26,5.03,1.96,2.06,3.35,3.94,4.54,6.54.5,1.09,2.39,1.4,2.42,3.01.04,2.4-.32,5.6,1.06,7.8l4.53,7.22c1.67,2.67,2.99,4.69,4.16,7.65,2.81,7.1,3.2,6.3,7.15,12.47,2.77,4.33,4.95,8.7,7.5,13.17,2.14,3.75,4.35,6.97,6,11.07.26.64,5.77,6.82,6.05,8.21.82,4.03,3.83,6.55,5.96,9.78,1.47,2.24,2.55,3.89,4.5,5.81,1.68,1.65,3.26,4.17,4.69,6.02l4.18,5.4c1.96,2.53,2.4,5.29,5.46,7.04,2.51,1.43,4.07,4.21,6.06,6.16l5.55,5.46c1.46,1.44,2.52,3.93,4.23,4.88Z"/>
  <path class="st79" d="M218.62,384.05l.65-.4c1.22,2.63,2.67,5.06,4.34,7.31l1.55-.22c2.79,4.23,6.16,7.84,9.91,11.12,8.64,21.17,14.63,43.28,16.93,66.15l-1.12,2.13c-.48.45-1.14.61-2,.46-.67-.16-2.07-.31-2.74-.14-.73-.21-1.31-.54-1.75-1.01-.98-.44-1.17-1.75-1.31-2.73-.82-5.84-1.48-11.76-1.74-17.67-1.73-3.78-2.66-8.51-2.46-12.66-2.17-6.25-4.06-12.6-5.66-19.03l.7-1.75c-2.49-3.19-4.37-6.56-5.67-10.1-1.91.97-2.77-.81-1.36-2.32-1.04-2.4-2.37-4.64-3.98-6.71-2.02.52-2.65-.44-1.29-2.05-2.94-4.26-5.69-8.63-8.27-13.1-1.44,1.49-3.37-1.09-2.12-2.58v-1.43c2.42,2.4,4.38,5.02,7.38,6.71Z"/>
  <path class="st38" d="M211.24,378.76l2.12,2.58c2.56,4.52,5.32,8.88,8.27,13.1.24.77.85,1.41,1.29,2.05,1.73,1.98,3.06,4.21,3.98,6.71.46.73.71,1.71,1.36,2.32,1.34,3.57,3.23,6.94,5.67,10.1,3.01,6.01,2.79,13.21,6.28,20.59-.69,1.01,1.47,11.98,2.43,12.51.26,5.89,1.07,11.48,1.73,17.37.14,1.27.86,2.46.03,3.37,0,.44-.56.58-1.67.44-2.43.05-4.59-.98-6.85-1.4.69-.07,1.57-.04,2.09-.46s.96-1.55.72-2.43c-.9-3.28-.44-6.33-.87-9.57l-1.92-14.24c-.43-3.17-1.67-5.83-2.26-8.74-1.72-8.5-3.96-16.46-8.34-24-1.58-2.72-1.72-6.07-3.58-8.64l-7.55-10.45c-1.49-2.06-1.7-4.77-3.36-6.79s-3.06-4.1-3.83-6.46c1.46.56,2.54,2.15,4.26,2.06Z"/>
  <path class="st43" d="M300.88,458.14c-5.19,3-9.97,5.69-15.7,7.45l-1.51-.86c-.85-3.22-1.93-6.38-3.22-9.47-.14-2.7-.84-5-2.11-6.9l.73-1.51s5-1.56,14.99-4.67l1.35.95c1.5-.91,2.23-1.09,2.37.88.69,4.14,1.92,8.35,3.69,12.62l-.59,1.52Z"/>
  <path class="st67" d="M278.33,448.36c1.28-.09,2.72.7,2.78,2.33.24,6.4,3.23,8.25,4.06,14.9-4.83,1.48-9.25,3.4-14.44,4.07l-1.53-.37c-1.77-4.5-2.6-9.02-2.5-13.56-1.71-3.31-1.7-5.71.05-7.2,2.7-1.69,8.84-1.82,11.57-.18Z"/>
  <path class="st14" d="M310.51,434.2l1.51.8c1.74,4.21,3.29,8.49,4.65,12.82l-.62,1.56-15.18,8.76c-2.87-3.25-4.77-16.4-4.05-14.68-.2-.48-.83-.5-1.43-.34-.27-.2-.52-.41-.66-.68-.42-.8,14.15-9.76,15.02-9.55,1.02.25,1.69,1.01.75,1.29Z"/>
  <path class="st46" d="M266.76,448.53c-.11,2.17.21,4.2,1.13,6.43.63,1.53-.33,3.42.14,5.07l2.71,9.64c-5.88.76-16.52,2.25-21.85.93.64-.01,1.36-.55,2-.46,1.64-1.18,3.85-1.54,6.61-1.08-.28-8.84-2.87-17.59-5.55-25.98-.21-1.56.11-2.32,1.84-2.05,1.54-.21,3.01.55,4.42,2.29l4.95,2.87c1.9.26,3.1,1.04,3.6,2.35Z"/>
  <path class="st55" d="M93.5,122.15l1.83.71c2.94,4.57,5.82,9.17,8.65,13.79l-.78,1.7.05,1.7c-.7,1.02-6.56,8.12-7.09,8.23-.61.14-1.19.02-1.75-.26-.05-1.74-2.03-2.7-2.74-4.23-1.4-3.03-3.64-4.8-5.96-7.14-1.48-1.49-1.77-4.07-3.74-4.78,3.53-3.86,7.22-6.92,11.54-9.73Z"/>
  <path class="st48" d="M138.12,115.81c.19.5.43,1.26.12,1.49-1.87,1.34-6.42,3.65-8.66,4.65-1.83,1.5-3.35,1.8-4.55.89-.48.23-1.25.52-1.48.22-2.43-3.16-5.97-8.98-8-12.5l-.09-1.52c3.76-3.71,9.35-5,13.54-8.06,1.47-.95,2.46-.88,2.97.21l6.46,12.27-.33,2.34Z"/>
  <path class="st29" d="M323.02,426.96l1.97-.38c1.71,4.21,3.48,8.47,5.34,12.8l-.7,2.29-13.57,7.71c-1.22-1.43-1.1-3.5-1.85-5.36-1.39-3.43-3.32-6.39-3.7-9.83,1.76-3.88,8.24-7.31,12.51-7.23Z"/>
  <path class="st9" d="M115.47,109.05c.48.15,1.19.47,1.61,1.15l7.95,12.65c.17.52.42,1.3.09,1.57-.93.77-9.64,6.58-10.25,6.62s-1.11-.26-1.55-.63l-1.72.06c-2.88-4.45-5.55-9.01-8-13.67l.82-1.43c3.75-1.39,6.79-5.74,11.05-6.32Z"/>
  <path class="st33" d="M141.39,94.12c1.48,2.43,3.46,4.8,4.69,7.62,3.42,7.84,3.36,3.33,3.68,7.31-2.06,3.89-7.25,6.82-11.64,6.77-2.14-4.26-4.82-8.27-6.84-12.89-.51-1.16-.97-2.34-2.27-1.93,3.86-2.81,8.36-4.53,12.38-6.87Z"/>
  <path class="st69" d="M104.42,115.37l3.16,6.38c2.78,2.04,2.42,4.85,5.74,8.66l-.5,2-7.51,6.09-2.11-.13c-2.07-5.64-6.95-9.7-9.7-16.21,3.64-2.37,6.68-5.21,10.92-6.78Z"/>
  <path class="st12" d="M340.86,435.26c-3.67,2.1-7.57,4.34-11.23,6.42-.95-3.08-2.09-6.21-3.61-9.34-.77-1.57-2.15-2.67-2.12-4.81-.01-.56-.45-1.13-.88-.57,0-1.71,1.5-3.1,4.49-4.16,2.18-1.87,4.03-2.41,5.56-1.62,2.98-.38,1.16,5.11,5.28,7.98.04,2.51,1.51,4.18,2.5,6.1Z"/>
  <path class="st53" d="M58.53,254.22v8.21l.3,7.85c.22,5.78-.3,11.63-.3,17.47v10.26c-.19.6-.42.59-.68,0v-46.52c.19-.6.42-.59.68,0,0,.9,0,1.84,0,2.74Z"/>
  <path class="st36" d="M58.53,304.16l.2,7.32c.1,3.7-.11,7.44-.2,11.15l-.16,6.16c-.35.12-.52-.28-.52-.76v-30.03s.68,0,.68,0c0,2.04-.06,4.13,0,6.16Z"/>
  <path class="st26" d="M58.53,227.53l.04,10.21-.04,13.74h-.68v-29.42h.68c-.09,1.74,0,3.7,0,5.47Z"/>
  <path class="st39" d="M244.4,469.45c.71-.19,1.54.27,1.75,1.01-1.22.32-2.4-.59-3.42-.57l1.67-.44Z"/>
  <path class="st56" d="M333.07,421.18l-10.05,5.78c-4.2,2.42-8.52,4.49-12.51,7.23,3.33-2.29-16.03,8.98-15.11,8.93-4.21,1.62-12.19,4.52-17.07,5.23-3.65.53-7.92.65-11.57.18-5.05-.65-9.59-3.7-12.98-7.51-1.83.25-3.08-1.06-3.76-3.93l-2.12-8.47,1.04-1.31c-.81-8.28-1.28-16.59-1.41-24.92l1.37-1.01c-.54-23.05-.71-46.12-.51-69.21l-1.09-2.5-.39-20.68,1.35-.83-.89-1.1c-3.22-29.29-18.14-56.23-44.93-70.48l-3.53-3.52-1.57.13c-6.32-3.23-13.25-6.82-18.3-11.91-5.6-.17-11.58-3.77-15.05-8.18-1.74-.31-3.53-.64-5.1-1.5-5.19-2.85-10.43-5.87-15.5-8.92-1.53-.92-2.72-2.28-3.87-3.61l-2.43.24c-5.56-3.59-11.25-6.92-17.09-9.99l-1.29-2.02c-3.22-1.26-6.28-3.79-9.48-5.84-14.38-9.16-17.83-16.61-14.84-33.43,3.26-2.75,5.31-7.19,8.8-9.68s6.62-5.69,10.12-7.95l11.71-7.56,13.09-7.04c3.98-2.14,7.87-4.3,11.64-6.77,3.02-1.98,6.74-4.09,10.21-5.9,11.62-6.07,22.51-12,33.73-19.05,16.45-10.34,33.86-18.45,53.11-22.08,11.86-2.24,23.62.21,35,3.16,9.27,2.41,17.04,6.41,24.89,11.53,14.11,9.2,28.67,16.7,43.26,25.27l50.45,29.6c28.08,16.48,37.25,49.34,37.31,80.31l.19,100.41c.02,9.51-2.56,18.36-5.22,27.17-5.07,16.79-15.57,30.41-29.74,40.55-8.17,5.85-16.49,10.36-25.37,15.02-10.35,5.43-19.88,11.34-29.88,17.35l-14.65,8.81Z"/>
  <path class="st11" d="M158.93,297.09c1.34-1.24,1.74-.72.92.89l2.19,2.08c.59.07.58.28.05.63,8.88,10.74,17.08,21.92,24.6,33.56,1.11-1.14,1.97-.54,2.58,1.8,5.06,5.77,9.57,11.99,13.54,18.65,6.38,6.93,12.08,14.34,17.1,22.23,1.84,1.23,2.61,2.56,2.31,4l-1.27,1.43,3.33,7.15-.67,1.43c-1.4.14-3.51-5.78-4.99-6.91-2.34-5.16-5.84-10.61-10.13-15.1l-4.58-4.81-4.75-6.9-5.14-7.07c-1.77-2.44-3.4-4.43-5.05-6.65-1.41-1.9-1.96-3.31-3.09-5.04l-4.6-7.06c-.92-1.41-1.71-2.94-2.71-4.31-1.6-2.19-9.27-10.95-9.2-14.06-3.11-1.77-4.54-4.94-6.66-7.61l-5.46-6.87c-1.8-2.27-4.19-3.9-4.87-6.64,2.44,1.36,4.5,3.19,6.53,5.17Z"/>
  <path class="st23" d="M89.89,188.6c3,4.99,5.97,10.09,8.91,15.29,1.58,5.55,4.19,10.39,8,14.73,4.11,9.69,9.75,18.1,15.96,26.54,12.02,16.31,24.59,32.21,37.77,47.39,1.49-1.28,2.14-.31,1.36,1.33l2.07,2.91,1.75.28,5.33,6.59-.27,1.77c8.02,10.38,15.82,21.14,23.38,32.28l1.44-.19c5.48,8.83,11.54,17.28,18.16,25.34,1.49,3.54,3.69,6.15,6.6,7.82,3.55,3.61,6.3,7.58,8.27,11.9,1.44.35,2.23,1.15,2.37,2.42.55-.11,1.37-.02,1.39.35.57,9.13-3.3,9.05-6.68,1.34l-3.86-4.13.37-1.61c-1.14-1.25-3.27-2.54-4.06-4.17-4.28-8.83-15.39-18.48-18.35-24.14-1.2-2.3-2.67-3.99-4.2-6.14-2.34-3.28-3.88-6.69-7.15-9.32-.75-.6-.83-2.56-1.76-2.91-7.51-11.71-15.71-22.9-24.6-33.56-.07-.18-.05-.44-.05-.63l-2.19-2.08-.92-.89c-.85-4.45-4.6-7.21-7.49-10.47s-5.18-6.47-8.53-9.35c-1.57-1.35-8.54-10.07-9.64-12.13-1.01-1.89-2.29-2.66-3.46-4.13-2.81-3.51-5.42-6.77-8.58-10.04-2.48-2.57-3.23-6.62-5.57-9.41-1.57-1.87-3.71-3.4-4.06-6.13-.21-1.57-2.02-2.44-2.38-3.62-.75-2.47-2.01-3.69-3.39-5.64-1.06-1.49-1.72-3.22-2.93-4.74-4.51-5.67-6.07-12.96-9.68-19.13s-9.58-12.86-10.58-20.04l7.24,6.34Z"/>
  <path class="st65" d="M94.81,191.29l5.57,3.56,2.7,6.03c.72,4.15,2.35,7.47,4.9,9.95,3.39,7.27,7.37,14.09,11.97,20.46l.22,2.32c3.39,5.53,7.31,10.74,11.76,15.61l.45,2.28c8.5,9.03,16.53,18.43,24.08,28.2-.46,1.1-.2,1.41.83.87,9.27,11.44,18.39,22.97,27.36,34.6,1.16,3.09,2.91,5.7,5.25,7.81.92,2.7,2.45,4.82,4.58,6.36,2.85,5.65,6.17,10.99,9.97,16.01,11.4,14.06,17.1,21.08,17.1,21.08,4.01,3.02,7.11,6.64,9.3,10.85,2.05-.14,2.24,3.65.32,4.15,1.44,2.02,1.39,3.2-.17,3.54-6.95-2.44-.26-.89-8.52-9.36-1.27-1.3-1.72-3.45-3.69-4.3-3.45-1.49-4.17-5.06-6.13-7.67l-4.41-5.89-8.41-10.8c-1.08-1.38-5.49-8.74-5.67-9.28-7.55-10.98-15.34-21.74-23.38-32.28-2.21-2.55-5.19-5.62-6.82-8.64l-2.07-2.91c-.62-.24-.84-1.06-1.36-1.33-13.28-15.45-25.96-30.81-37.92-47.57-5.68-7.96-9.62-14.66-14.5-23.19-2.06-3.6-4.08-7.13-6.49-10.59-2.52-6.75-5.86-12.92-9.57-19.1l.82-1.48c.41.42,1.46.37,1.93.67Z"/>
  <path class="st65" d="M92.88,190.61l8.82,18.7c3.47,7.35,9.81,13.27,12.67,21.08,2.3,6.3,8.86,12.88,10.62,16,3.04,5.41,6.61,9.68,10.64,14.38l3.47,4.04c1.69,1.97,2.72,5.6,5.2,6.67,2.1.91,1.68,2.27,2.96,3.67l8.06,8.83c1.19,1.31,1.53,2.83,3.02,3.96s2.45,2.92,2.2,4.59c-3.27-1.73-5.49-4.87-7.89-7.68l-7.06-8.25c-2.71-3.17-5.19-6.07-7.85-9.27-2.25-2.71-3.74-5.56-5.85-8.45-3.22-4.41-7.57-7.99-10.09-13.11.32.65-7.16-10.05-7.94-11.25-.97-1.49-4.63-7.98-6.36-10.75-1.01-1.63-.24-4.21-1.83-5.71-3.91-3.69-6.25-8.16-6.96-13.57-.17-1.05-2.02-1.55-2.29-2.55-1.84-6.86-8.77-9.67-6.53-13.34.81.71,2.72.6,2.99,2.02Z"/>
  <path class="st18" d="M107.19,198.25l6.67,3.53c-.01.14.13.35.08.47,4.44,8.85,9.18,17.91,14.45,26.55,7.67,12.59,16.72,24.78,26.94,35.52l12.72,16.53c1.03-.87,1.39-.41.61.75,8.4,10.22,16.42,20.67,24.08,31.33,8.88,13.76,18.57,27.08,29.08,39.94,3.62,3.04,6.63,6.45,9.02,10.24,1.96.19,2.08,1.93.31,2.78,1.42,1.02,2.07,3.71-.2,4.11l-1.52.7c-8.49-8.46-16.8-18.5-23.96-28.13-6.31-8.49-12.59-17.44-17.51-26.78-16.14-21.12-32.85-41.73-50.11-61.85-3.08-5.44-6.9-10.17-11.07-14.79l-1.53-3.87c-7.59-11.67-14.39-23.84-20.4-36.52-.23-1.22.55-1.39,2.35-.51Z"/>
  <path class="st49" d="M131.58,211.76c.6.07.66.3.2.7,3.85,5.21,7.34,10.74,10.47,16.58,7.44,10.67,15.49,21,24.15,30.99,10.74,13.53,21.23,27.17,31.47,40.9,9.32,15.06,19.78,29.18,31.37,42.36l.91-.93c-1.16-.6-1.2-1.1.13-1.2.21-1.2.43-1.22.8-.06,2.22.66,1.75,6.44,0,7.5-.15,1.86-.46,3.45-.93,4.77-.83-.06-1.33-.75-1.5-2.09l-9.45-10.36c-1.6-2.76-3.51-5.49-5.73-8.18-19.64-27.94-38.96-55.3-61.49-80.74-2.91-2.59-23.96-32.89-23.19-34.84.43-1.1,1.03-.86.96-.86-1.18,1.03-4.53-6.04-4.29-6.38.65-.91,1.13-1.04,1.52-.16l4.59,1.99Z"/>
  <path class="st63" d="M139.53,199.07c.85,1.54,1.98,2.64,3.37,3.3,4.93,7.2,9.46,14.65,13.62,22.34l-1.34,1.33c-.23.85-1.45.17-1.58-.67-1.04.65-2.75-.86-3.36-1.85-1.67.75-3.28-.19-4.82-2.82l-1.53.38c-1.97-1.34-3.74-2.83-5.28-4.48-1.05.52-2.3-.21-3.74-2.2-.66.89-1.68.24-3.09-1.95-.05-.21-.24-.5-.2-.7.36-1.4-.19-2.73-1.1-4.08l-6.61-9.85c-1.77-2.64-2.85-5.59-5.13-7.97-.79-.82-.7-1.99-.03-2.57,7.5,2.93,13.72,8.07,20.81,11.77Z"/>
  <path class="st22" d="M127,209.78c-2.27-3.96,5.85,12.01,2.53,6.44l6.31,10.6c1.03,1.73,1.13,4.28,2.77,5.59,2.19,1.76,4.04,3.55,4.41,6.52.2,1.63,2.14,2.07,2.91,3.2,3.87,5.68,8,10.91,13.16,15.62.96.88.71,3,1.75,3.67,3.58,2.27,5.61,5.24,7.69,8.83.83,1.43,2.59,3.17,3.58,4.46l5.35,6.98c1.81,2.37,11.22,13.13,12,15.1.7,1.77,2.19,3.47,3.46,5.32l5.06,7.41c1.07,1.57,1.83,2.29,2.85,3.72l6.22,8.74c2.7,3.8,5.5,7.37,7.93,11.31,1,1.63,1.38,2.67,3.35,3.64,1.47.73,1.51,3.39,2.7,4.66l8.53,9.16c.58.76-.24,2.22.6,2.62,1.03.17.73,2.66-.72,2.22-1.23-.37-12.6-14.01-13.52-16.4-12.19-16.73-24.33-33.59-36.4-50.56-13.23-16.08-26.36-32.25-39.4-48.53-5.48-7.95-14.3-21.55-17.18-30.39-.19-.58-.08-1.25.12-1.96,1.5.27,2.88.95,3.96,2.02Z"/>
  <path class="st42" d="M123.03,207.76c7.56,16.87,16.27,30.69,28.35,45.33l3.71,4.5,5.21,5.71c2.18,2.39,4.03,5.13,5.96,7.69,3.57,4.73,8.49,9.49,13,15.74,2.37,3.28,4.18,6.53,6.82,9.64,2.79,3.28,3.94,5.38,7.14,9.41,5.94,7.48,6.66,10.66,13.04,19.07l6.49,8.57c1.24,1.64,1.37,3.7,3.74,4.69,1.03.43.71,2.72,1.7,3.42,1.7,1.2,10.74,11.23,11.82,13.36.61-.74-.02-1,.14-1.5.52-1.6-.55-3.74.93-4.77,2.16.31,1.92,1.88.08,2.77,2.09.3,1.91,5.03-.1,5.44l-.93,3c-3.82-3.2-7.37-6.79-10.65-10.77v-1.75c-13.09-17.59-25.83-35.38-38.22-53.37-3.57-4.66-7.49-9.05-11.75-13.16-4.23-7.08-9.27-14.34-15.17-20.16-13.05-15.85-27.19-34.32-35.25-53.15-.18-.43.42-.93,1.01-1.21,1.17.03,2.24.57,2.93,1.53Z"/>
  <path class="st78" d="M120.11,206.23c-.13,1.51,1.51,2.64,1.93,4.19,1.32,4.85,8.16,14.99,10.57,19.12l5.81,9.96c1.75,3,4.61,5.27,6.61,8.34,3.61,5.53,7.7,10.28,12.54,14.69,2.1,1.91,3.18,4.27,4.84,6.37l4.77,6.05c1.99,2.52,3.16,5.53,5.35,7.79l6.38,6.58c-.42-.44,10.15,13.6,10.14,13.58,4.11,6.12,4.05,6.73,8.84,13.14,2.82,3.77,5.15,7.67,7.9,11.43l9.22,12.62c1.75,2.4,2.96,4.94,4.48,7.22-.96,1.06-2.04.64-3.23-1.27-12.47-16.83-24.65-33.82-36.55-50.99l-11.04-13.43c-.15-.28-.44-.48-.61-.75-5.66-7.8-11.74-15.25-18.24-22.35-5.83-5.26-35.3-49.56-33.85-53.47.5-1.34.9-1.05,2.05-.18.58.51,1.74.49,2.1,1.36Z"/>
  <path class="st8" d="M118.01,204.87c-2.97-1.28,3.49,9.72,3.21,9.32,3.13,4.51,5.12,9.28,7.98,13.93,3.48,5.65,22.12,31.89,26.3,34.63,3.07,2.02,4.08,5.93,6.38,8.63,3.49,4.07,3.6,3.46,6.16,9.47-2.54-.65-3.73-3.24-5.46-5.32l-6.2-7.46c-1.85-2.23-3.03-4.59-5.16-6.53-9.51-8.68-9.09-12.93-16.73-20.43-1.9-1.87-1.97-4.92-3.73-7.04-2.87-3.45-4.68-7.28-6.97-11.09l-3.57-5.95c-1.27-2.12-2.23-3.92-3.2-6.43-1.07-2.76-4.33-5.39-3.09-8.34,1.69.21,2.85,1.54,4.07,2.61Z"/>
  <path class="st57" d="M107.19,198.25c-1.16-.29-1.82.13-.67.99,4.46,7.18,14.1,28.7,18.58,33.5,1.87,2,1.9,3.65,2.84,5.71.03.06,7.51,8.27,8.98,11.42,1.63,3.49,4.19,5.54,6.71,8.17,1.07,1.12,2,3.3,3.09,4.39l4.49,4.49c-.58-.58,28.55,36.19,30.15,38.36l4.17,5.68c1.52,2.07,3.75,3.48,4.68,6.13,1.61,4.58,5.25,7.92,7.59,12.05,1.91,3.37,7.67,11.29,10.25,14.51l4.82,6c1.4,1.75,2.39,3.37,4.06,5.01,4.03,3.95,9.07,12.81,14.04,15.36,1.92,1.66,1.79,5.64-.09,7.3-1.99-.25-2.67-2.36-3.95-3.9-2.38-2.88-5.98-4.72-7.79-8s-8.27-9.92-11.42-14.47c-1.22-1.76-2.71-2.76-4.03-4.32-.98-1.15-1.27-2.65-2.43-3.84-3.44-3.55-5.64-8.15-7.78-12.56-2.21-1.27-3.28-3.2-4.13-5.48-.79-2.13-3.78-3.17-4.2-5.34-.6-3.08-3.28-5.25-6.11-9.03l-6.41-8.54-2.91-3.99c-3.04-4.17-6.79-7.06-9.69-11.12l-4.16-5.81c2.91,4.06-16.32-19.73-12.55-15.62l-5.61-6.12c-1.36-1.48-2.82-3.14-4.2-4.69-1.25-1.41-3.14-1.99-2.62-4.67-2.87-1.39-3.41-4.42-5.2-6.5s-8-7.91-6.86-11.57c-2.83-1.66-3.19-4.67-4.64-7.06-2.61-4.29-5.38-8.09-7.15-12.77-.48-1.25-2.39-1.98-2.78-3.32-1.19-4.14-2.63-7.99-4.38-11.96-.32-.73.02-1.69.53-1.79,2.2,1.4,4.5,2.19,6.81,3.41Z"/>
  <path class="st39" d="M222.22,380.94c2.65,2.89,5.82,5.18,6.81,9.5.13.55,1.28.54,1.6.41.77-.3.38-5.84.38-5.86.16-1.2.26-2.36.17-3.54,1.72-.57,3.16.53,4.3,3.33,4.19,8.91,8.19,17.94,12,27.1.88,5.1,1.38,10.25,1.49,15.44,1.45,4.45,1.51,9.97,4.83,13.71-.74.56-.57,2.27-.13,3.37,2.7,6.61,5.14,18.73,5.45,25.97-2.93.11-5.63.15-8.22-.23-.57-4.26-.76-8.7-1.6-13.25l-1.91-10.33-4.32-18.21c-.79-3.32-2.4-6.38-3.45-9.74-7.56-24.2-5.35-13.54-11.4-21.56l-4.59-6.08c-1.3-1.72-1.82-3.6-2.99-6.08l-2.2-4.66c1.95-.18,2.57,1.16,3.8.72Z"/>
  <path class="st38" d="M221.63,394.44c-2.09-1.5-4.04-3.29-4.82-6.05-1.71-2.22-2.89-4.6-3.45-7.05,2.36.52,2.8,2.97,3.93,4.99,1.57,2.81,3.44,5.22,4.34,8.11Z"/>
  <path class="st38" d="M233.93,415.62c-2.78-2.33-6.73-5.99-5.67-10.1-.19-.18,6.87,8.66,5.67,10.1Z"/>
  <path class="st38" d="M226.9,403.2c-2.16-1.41-3.58-4.19-3.98-6.71,2.9.77,4.25,3.83,3.98,6.71Z"/>
  <path class="st71" d="M411.77,320.43l-1.96-2.5c-2.63-6.35-5.06-12.78-7.29-19.28-3.32-5.87-6.3-11.93-8.94-18.19-3.99-5.65-7.89-11.36-11.71-17.14-6.38-5.96-12.14-12.45-17.28-19.45-20.63-19.49-35.42-43.53-49.75-67.72-7.83-10.77-16.46-20.71-26.72-29.27-2.65-1.59-3.23-1.74-5.44-.03-.3-6.25,0-12.57.08-19.16.02-1.76,1.3-3.31,2.42-3.02,1.87.49,3.42,1.53,2.9,3.65-1.25,5.07,11.13,6.56,17.4,13.28l3.03,3.25c1.88,2.02,3.22,6.2,5.94,7.24,4.13,1.58,4.72,4.19,6.33,7.46,1.37,2.79,5.81,5.59,5.94,9.22,4.85,5.8,3.7,2.71,5.15,7.86.81,2.87,3.42,5.17,4.86,7.9l7.67,14.55c1.74,3.31,4.61,5.65,6.54,8.59,4.39,6.67,7.69,9.17,12.25,15.71,1.58,2.27,3.86,2.96,5.57,4.7,3.16,3.22,5.78,6.47,10.04,8.54,1.84.89,2.5,3.5,4.3,4.69,10.59,6.97,3.93,3.01,9.02,12.11,1.28,2.29,1.57,3.99,4.09,5.65,1.42.94,3.31,3.51,4.06,5.03,1.11,2.23,2.72,2.29,4.2,3.69,1.95,1.85,2.3,5.1,5.04,6.65,1.68.95.38,3.59.58,5,1.23,8.67,4.36,7.99,4.75,9.46l2.91,10.82c1.18,4.4,3.36,9.3,3.9,13.76,1.5,1.22,3.99,2.09,4.75,4.47.25.77,4.99,15.19.96,12.37-5.12-3.59-10.25-7-15.57-9.91Z"/>
  <path class="st54" d="M411.77,320.43c-3.7-2.02-7.22-3.95-10.87-6.03-2.56-5.68-5.26-11.33-8.1-16.94-3.59-9.19-8.78-17.67-15.57-25.43l-6.82-10.05c-23.71-24.25-43.69-51.69-61.5-80.28-6.79-10.22-15.79-19.22-24.37-27.49.45,3.04-.14,5.02-1.78,5.93-.85-4.39-.77-8.97-.08-13.27l.74-4.66c1.3,2.49,4.09,2.37,5.88,3.87,1.44,1.21,13.75,12.82,14.11,13.24,1.61,1.87,2.39,4.13,4.52,5.93,1.54,1.31,3,3.48,4.24,5.12l3.82,5.05,3.35,5.64,16.29,26.12c3.33,5.33,14.62,19.76,18.88,24.21l11.11,11.6,4.28,5.35c1.44,1.8,2.36,4.15,4.46,5.76,11.17,8.58,10.33,13.08,17.89,21.69,3.11,3.54,8.52,17.49,8.52,17.49l3.4,5.42c-2.95-4.71,9.69,23.96,7.61,21.74Z"/>
  <path class="st6" d="M400.9,314.4l-9.61-5.49.17-.7c-3.01-2.16-4.98-5.33-5.9-9.51-8.78-16.73-19.75-32.43-33.26-45.91-5.46-7-11.07-13.8-16.82-20.4-25.8-36.56-38.69-54.84-38.69-54.84-3.76-4.52-7.69-8.86-11.8-13.01-.19.09-.72.59-1.6,1.5,1.2,1.65,1.15,2.52-.14,2.61,1.55,2.8,1.56,4.84.05,6.1,1.16,1.74,1.15,2.91,0,3.49.43.32.36.56-.18.72-.19.6-.42.59-.68,0,0-6.28-.32-12.6.33-18.84.25-2.42.66-4.98.23-8.18,3.07.31,4.02,3.04,5.85,4.69,7.53,6.79,16.27,16.68,21.74,25.08l15.88,24.39c2.21,3.4,4.29,6.5,6.78,9.7l10.18,13.07c1.82,2.33,3.41,4.65,5.44,6.92l5.13,5.73c3.74,4.18,6.76,8.73,10.73,12.74l6.77,6.84,5.18,7.67c2.52,3.73,5.14,7.14,7.88,10.84l3.73,5.05c1.81,2.44,3.21,5.4,4.11,8.28l1.23,3.98c-.83-2.67,9.55,16.5,7.3,17.47Z"/>
  <path class="st74" d="M248.28,308.16c-1.73,2.12-3.58-.43-3.49-2.61-3.4-5.17-6.63-10.45-9.69-15.83l.2-1.37c-2.63-4.26-5.22-7.4-9.04-10.65-1.56-3.14-3.51-5.85-5.84-8.12-1.5-2.67-3.42-5.14-5.76-7.42l-15.31-25.9-.42-3.2c6.61,3.88,13.2,7.62,19.35,12.82,17.45,14.78,24.24,31.48,29.48,53.28.78,3.24.48,6.05.53,8.99Z"/>
  <path class="st61" d="M235.3,288.36c1.08.27,1.14,1.26,1.77,2.27l9.01,14.57c-.14,1.67.87,2.75,2.2,2.96l.46,24.82.17,68.41c-2.17-.65-3.27-7.57-.79-8.29-1.05-4.11-2.3-12.48-1.63-16.57l1.4-2.76c-1.83-5.4-2.05-12.48.12-17.73l-1.36-3.64.25-19.69c-3.31-3.59-5.97-7.84-7.99-12.74-2.59-3.58-5.16-7.09-7.72-10.53-.24.96-.44.88-.59-.06-.73.55-1.05.25-.69-.61l-2.03-5.44.66-.67c-.61-2.43-1.61-4.73-2.99-6.9-.69-1.15-.67-2.49.06-4.02-2.86-4.79-5.39-9.84-7.57-15.14l.64-1.83-.44-1.55c3.36-1.07,6.28.73,8.77,5.39,3.34,2.64,6.1,5.89,8.29,9.73Z"/>
  <path class="st30" d="M391.29,308.91c-1.98-1.13-4.58-1.64-6.18-3.42.08-1.45.11-1.61.09-.5-3.78-6.74-7.44-13.49-10.97-20.26-4.3-5.33-8.51-10.84-12.62-16.54-18.16-20.15-34.64-41.36-49.43-63.65-8.04-12.47-17.06-24.36-27.24-35.32-.84-.91-1.36-1.96-1.55-3.19,0-1.76-.78-3.39.04-5.72,2.19,3.66,5.72,5.9,8.31,9.26,1.05,1.36,1.91,2.56,3.15,3.79,3.59,3.56,6.21,7.92,9.4,11.87,2.78,3.44,4.54,7.11,6.98,10.64l9.32,13.48c3.48,5.04,19.09,27.46,22.67,29.92,1.84,1.27,2.51,3.38,3.85,4.99,2.86,3.43,5.39,6.88,8.41,10.04,3.2,3.35,6.62,6.22,9.26,9.95,2.02,2.86,3.86,6.33,6.46,8.56s2.83,4.83,4.52,7.22c2.82,3.99,5.9,7.5,7.74,12.21,1.05,2.71,3.37,4.98,4.07,7.96,1.19,5.05,6.85,9.41,3.71,8.69Z"/>
  <path class="st59" d="M383.62,304.62c-1.5-.85-4.32-1.9-5.21-3.28l-2.54-1.73c-6.77-11.41-14.04-22.6-22.6-32.93-21.01-23.29-39.09-48.51-56.63-74.59-8.37-9.85-12.56-14.78-12.56-14.78l-.77-2.57c-.18-2.04-.27-4.06-.05-6.1,1.76.16,4.35,2.99,5.64,4.46,10.1,11.44,18.43,24.17,26.64,36.82,14.2,20.29,29.54,39.69,46.02,58.2,4.09,5.66,8.3,11.18,12.64,16.55,3.38,6.25,6.7,12.5,9.98,18.75l-.56,1.19Z"/>
  <path class="st61" d="M198.93,233.07c5.66,8.7,9.83,16.71,15.59,25.93,1.46,2.34,2.03,5.3,5.33,5.93.59,2.76,2.03,4.88,4.46,6.36,3.46,9.07,8.12,9.49,10.98,17.07-1.9-.48-2.64-2.42-3.33-4.24-.99-2.61-3.86-3-5.75-4.58-1.26-1.05-5.35-8.17-7.53-4.76-1.77,1.07-3.97-2.69-2.46-4.02-.06-2.38-1.4-5.81-4.37-6.27-5.67-2.74-11.31-8.14-14.34-13.63-6.24-7.03-11.77-14.55-16.58-22.57-1.9-2.58-2.53-4.92-1.88-7,6.95,3.37,13.26,7.9,19.87,11.79Z"/>
  <path class="st4" d="M283.96,178.84c11.39,14.36,22.14,29.19,32.24,44.5,10.91,14.91,22.43,29.23,34.57,42.94,7.74,9.63,14.82,19.74,21.23,30.31.38.6.23.8-.46.61-2.49-.9-4.72-2.56-6.9-4.01-2-1.85-3.48-3.53-4.56-6.04-16.5-21.23-32.87-42.24-49.1-63.03-8.42-12.73-17.26-25.1-26.53-37.11-.66-.56-1.11-1.65-1.33-3.26-.58-1.21-.54-3.51,0-4.79,0-.22.24-.51.18-.72,1.14-1.09,1.54-.7.65.6Z"/>
  <path class="st10" d="M164,213.1l2.83,3.14c3.23,6.27,6.94,12.19,11.14,17.75,1.08,2.09,2.22,5.49-1.06,3.8-.17.35-.41.38-.7.1l-1.01.33c-2.02-1.51-4-3.01-5.93-4.49-.88.32-1.14.27-1.17-.72l-2,.19-8.75-5.67c-.98,1.02-1.79-.5-2.16-1.49.27-1.9-.92-3.13-1.94-4.84l-3.09-5.16c-1.33-2.23-3.24-4.17-4.53-6.48s-1.83-4.69-3.89-6.42c-2.15-.47-2.52-2.33-2.2-4.08,8.34,4.35,16.44,9.1,24.47,14.03Z"/>
  <path class="st1" d="M360.32,289.65c1.98.16,1.36,1.83-.49.82l-6.8-3.5c-3.8-2.8-7.05-6.34-9.77-10.59-11.9-14.13-23.36-28.53-34.38-43.21l.28-1.52c-8.44-11.74-16.85-23.43-25.22-35.06l-.7-1.95c-.74-1.5-.65-3.94-.02-5.49l.86-.07c15.07,21.34,30.59,42.37,46.57,63.08l14.07,16.94c5.09,6.99,10.28,13.84,15.58,20.54Z"/>
  <path class="st30" d="M385.11,305.49c-.33-.37-1.05-.61-1.5-.87-1.15-1.36-1.42-3.19-2.41-4.86l-5.83-9.77c-1.05-1.76-1.03-4.35-3.1-5.81-2.39-1.69-3-4.37-4.64-6.45l-11.36-14.41-5.65-6.06c-3.13-3.37-6.01-6.79-8.43-10.83-2.44-4.07-10.7-11.05-13.84-16.84-1.36-2.5-3.34-3.94-4.89-6.08-2.23-3.06-3.92-6.32-6.41-9.29-1.46-1.74-9.44-14.43-11.5-17.42l-6.96-10.06c-2.99-4.33-6.97-7.63-9.74-12.15-1.06-1.74-4.36-3.01-5.6-5.96.09-.82.14-1.79.14-2.61,10.17,9.63,18.29,21.16,26.26,32.92,1.94,2.87,4.14,4.95,5.56,8.21.49,1.11,1.67,2.52,2.47,3.64l13.09,18.37c8.83,12.39,14.52,17.76,23.2,28.16l4.94,5.91c2.63,3.15,5.16,5.75,7.32,9.19,1.57,2.51,3.69,4.56,5.06,7.28,1.06,2.1,3.6,3.4,4.41,5.6.5,1.35.82,2.29,1.64,3.43,3.65,5.05,6.27,10.52,8.77,16.28.17.38-.67.57-1.01.46Z"/>
  <path class="st66" d="M248.12,393.1c-.33,2.82.7,5.75.79,8.29l.04,25.92c-2.47-7.55,1.71-4-3.2-16.04l-2.19-5.35-4.64-10.69c-1.03-2.37-3.02-4.27-3.68-7.15-.61-2.64-2.26-5.02-4.07-6.63l-.32-4.15c-.18-2.42-.02-4.87.09-7.3l.2-4.11c.16-1.53.95-1.57,2.06-.58,6.27,8.49,11.25,17.75,14.92,27.8Z"/>
  <path class="st2" d="M179.06,221.28c1.15,2.1,2.05,4.65,3.41,6.9l4.67,7.73c1.11,1.85,2.81,3.02,4.01,4.95s8.88,8.4,6.38,10c-.92.73-3.26-1.05-3.98-2.08l-1.88.1-6.54-5.58-1.52.36c-2.49-1.7-4.72-3.65-6.69-5.85,2.62,1.1-1.4-5.3-1.11-4.95-5.05-6.07-9.01-12.63-11.8-19.75,4.84,2.97,9.94,5.71,15.05,8.18Z"/>
  <path class="st5" d="M378.41,301.34c-2.83-.06-4.58-3.32-6.87-4.15.16-.17.42-.36.46-.61-6.23-10.71-13.39-20.92-21.48-30.61-12.14-13.95-23.6-28.2-34.4-42.75-10.06-15.33-20.78-30.13-32.16-44.39.03-.32-.28-.9-.65-.6-.34-1.15.11-2.35,0-3.49l8.73,10.21c2.92,3.42,5.68,6.79,8.14,10.52l5.43,8.26,19.97,27.86c1.31,1.82,2.44,3.31,3.92,5.09l10.24,12.27,3.4,4.84c1.74,2.48,3.82,4.2,5.83,6.49,1.51,1.72,2.74,3.54,4.4,5.22,3.45,3.5,5.77,7.78,9.04,11.48,4.1,4.63,6.6,10.21,10.02,15.32,1.51,2.26,3.33,4.01,3.98,6.9,1.22.39,1.65,1.59,2.02,2.15Z"/>
  <path class="st7" d="M344.78,282.37c-1.19-.72-3.49-2.25-4.79-2.75-.57-.69-.59-.88-.04-.59-3.88-1.4-6.5-4.45-8.51-7.99-10.42-12.73-20.59-25.73-30.51-38.99l-9.48-14.03c-2.98-2.99-5.36-6.06-7.14-9.21-.07-2.07-.27-2.45-.58-1.15-.32-.54-.59-1.29-.65-1.96-.51-1.3-.52-3.73.33-4.71.83-.21,1.3.09,1.76.68,7.23,9.31,13.95,18.7,20.7,28.31,13.54,16.69,27.24,33.89,40,50.72.73,1.14.29,1.81-1.08,1.66Z"/>
  <path class="st73" d="M339.99,279.61c-2.58-1-6.98-4.14-9.48-5.68-3.4-2.95-6.72-5.92-9.38-9.59-10.06-13.22-19.88-26.7-29.44-40.43-2.77-2.78-4.24-4.3-5.78-8.04-.32-.77-.4-3.73-.39-3.55.02.55.04,1.32-.41,1.59-.21-1.83-1.92-4.18-1.38-6.25.18-.31-.31-.71.55-1.42.51,4.19,4.34,6.09,6.87,9.18,4.07,4.98,7.09,10.58,10.89,15.83,2.92,4.03,6,7.51,8.93,11.58l4.58,6.35c1.02,1.42,1.83,3.06,3.29,4.25,3.27,2.66,5.31,6.17,7.75,9.42,2.65,3.53,5.76,6.51,7.98,10.52,1.33,2.41,2.64,4.47,5.73,5.24.39.29.42,1.33-.31,1.01Z"/>
  <path class="st75" d="M309.18,231.65l3.61,3.82c2.41,2.55,3.46,5.96,6.09,8.42,2.4,2.24,3.61,5.36,5.7,7.89l12.73,15.37c3.96,4.79,10.86,12.37,13.68,17.87.37.72,2.99.89,2.06,1.96-2.45-1.26-6.13-3.13-8.26-4.61,1.15-.64-.88-1.19-1.1-1.74-1.74-4.25-4.66-6.94-7.48-10.31-1.63-1.95-2.78-4.28-4.7-6.14-4.32-4.18-7.14-9.3-10.94-13.8s-7.13-9.23-10.73-13.98c-2.74-3.61-7.06-8.76-9.27-12.09l-6.52-9.77-6.65-8.29c-1.49-1.86-2.77-3.54-3.97-5.27-.85-.8-.93-3.31-.08-4.3l.91.34,24.95,34.63Z"/>
  <path class="st72" d="M330.51,273.93c-4.14-2.55-9.03-4.41-12.36-8.15-8.94-11.31-17.62-22.71-26.04-34.21l-3.19-6.48-.41.44c-1.22-3.84-2.95-7.52-3.41-11.63.2-.68-.31-1.62.55-2.14.33,7.98,4.83,6.57,8.56,13.62,2.67,5.06,7.46,9.67,12.25,17.06,1.08,1.66,2.48,3.12,3.65,4.7l11.64,15.74c2.94,3.97,6.52,7.13,8.77,11.04Z"/>
  <path class="st13" d="M318.15,265.78c-14.34-9.13-24.49-24.11-29.63-40.24-.36-1.41.83-2,.89-.24,4.78,7.52,6.04,7.48,10.45,14.31,5.58,8.63,14.13,16.98,18.3,26.17Z"/>
  <path class="st50" d="M364.64,293.18c-1.17-.78-3.58-2.08-4.81-2.71.63.22.49-.48.49-.82l-2.1-2c-8.61-12.53-18.05-24.68-28.33-36.46-15.23-20.14-30.23-40.38-45-60.72-.73-1.09-1.65-2.5-.43-3.47.65.05,1.3.36,1.81,1.06l6.39,8.81c2.35,3.24,4.39,6.35,6.84,9.51l4.52,5.83c3.42,4.41,5.86,9.45,9.31,13.87l9.88,12.67,11.37,14.59,7.6,9.47c4.87,6.07,9.63,11.86,14.22,18.1,3.07,4.18,6.4,7.88,8.24,12.27Z"/>
  <path class="st30" d="M283.12,183.75c.53,1.62,1.45,4.53.1,5.41.04,1.83-.16,3.65.02,5.49.69,1.03.71,1.71.07,2.04-.45,1.46.09,2.86.08,4.3-.01,1.56-.48,3.13-.33,4.71-.38.26-.47-.31-.64-.78v-25.96h.7v4.79Z"/>
  <path class="st27" d="M186.69,334.26c-1.51,0-1.4-1.84-2.16-2.84l-9.12-11.92c-2.93-3.83-6.14-7.2-8.39-11.5-1.43-2.74-3.87-4.67-4.93-7.3,3.32,1.26,4.79,5.11,7.35,7.64,1.43,1.42,2.96,2.15,4.12,4.19,1.41,2.49,2.49,5.63,4.42,7.76,1.71,1.87,2.19,3.55,3.73,5.71l2.98,4.17c.91,1.26,2.23,2.48,1.99,4.1Z"/>
  <path class="st27" d="M162.04,300.06c-1.06-.31-2.38-.79-2.19-2.08,1.24-.03,2.21.83,2.19,2.08Z"/>
  <path class="st65" d="M194.16,337.69c-4.33-4.23-8.13-9.25-11.47-14.64-1.71-2.74-2.87-5.54-5.34-7.73s-4.99-7.12-6.56-9.92c2.78.77,3.85,3.95,5.65,6.25l6.53,8.38c1.61,2.07,3.23,4.18,4.41,6.63,1.94,4.04,5.44,7.04,6.79,11.02Z"/>
  <path class="st65" d="M163.97,296.77c-.51-.95-2.53-1.34-2.07-2.91,1.22.47,2.13,1.58,2.07,2.91Z"/>
  <path class="st51" d="M247.89,373.78c-.27,6.36.98,12.93.23,19.33-2.42-1.52-6.71-11.54-8.26-14.9-.74-1.6-6.94-13.22-8.71-12.31.04-.87-.4-1.91-.31-2.78l-1.25-1.65c.02-1.54.51-3.09,1.47-4.65l.1-5.44c.49-2.87,2.26-1.87,4-.31,1.2,1.07,9.9,15.41,10.95,17.59.76,1.62,1.35,3.33,1.78,5.13Z"/>
  <path class="st8" d="M219.48,347.29c2.3,1.7,4.01,4.09,5.85,6.35,1.58,1.93,3.97,2.87,4.66,5.39.64-1.16.33-1.9,1.07-2.23-.04,2.11-.01,4.21-.22,6.3-1.37.85-4.56-4.62-8.46-7.77-2.22-1.8-3.17-4-4.9-6.06-3.46-4.12-6.82-7.83-9.48-12.62-.15-.27-8.07-11.85-7.99-11.75-1.72-2.11-3.78-3.32-5.01-6.13-1.34-3.07-12.44-17.97-15.42-22.1-3.7-5.13-8.02-9.61-10.93-15.07,1.54.5,2.4,2.08,3.64,3.34l4,4.09,4.26,5.36c.85,1.07,7.63,12.47,10.81,15.2,2.7,2.32,3.86,5.48,5.55,8.28,1.11,1.84,2.65,3.15,3.67,5.18,3.09,6.19,14.92,19.06,15.8,20.87.99,2.06,1.76,2.38,3.1,3.36Z"/>
  <path class="st19" d="M134.87,214.41l2.78,2.66c8.02,13.63,17.48,27.06,28.37,39.31,8.68,11.22,17.49,22.3,26.41,33.23l15.58,23.23c7.57,9.85,14.95,19.69,22.14,29.52.12,1.62.59,3.17-.02,5.08-.18-2.65-5.57-7.11-6.28-8.04l-6.82-8.89c-2.38-3.1-7.5-10.06-9.54-13.13l-4.67-7.05c-1.02-1.54-2.16-2.64-3.15-4.3-2.68-4.53-5.86-8.68-9.11-12.8l-5.41-6.88c-.99-1.26-1.73-3.17-2.72-4.27-10.24-11.47-16.9-22.82-27.16-32.83-1.78-1.74-2.42-4.22-3.79-5.9-2.1-2.57-10.5-14.02-11.83-16.28l-5.78-9.87c-.92-1.57-1.76-3.13-2.11-4.75,1.39-.52,2.17,1.81,3.09,1.95Z"/>
  <path class="st40" d="M248.01,356.05c-.01,5.94.13,11.81-.12,17.73-1.62-1.19-2.19-3.23-3.34-5.09l-10.47-16.8c-.67-1.08-2.32-1.21-2.92-.52.02-.9.08-1.88-.08-2.77-.44-2.49.23-4.98,0-7.5-.75-2.64-.59-6.19.2-8.78l2.02-.05c6.12,6.78,11.3,15.41,14.7,23.77Z"/>
  <path class="st76" d="M138.62,216.61c2.07,1.44,3.59,3.26,4.55,5.45,5.59,8.02,11.11,16.07,16.57,24.13,6.67,6.88,12.65,14.18,17.96,21.88,3.21,2.95,5.77,6.24,7.68,9.89,3.32,3.09,6.27,6.61,8.87,10.57,10.28,15.84,21.37,31.09,33.29,45.75,1.46,2.05,2.43,4.38,2.75,6.88-.09.36-.15.83-.13,1.2-1.94.07-2.12-2.12-3.24-3.31-4.62-4.9-8.59-10.09-12.17-15.84-2.39-3.84-5.58-6.8-7.91-10.51l-5.05-8.03c-3.48-5.54-7.27-10.78-11.29-16.11s-8.87-9.45-12.19-15.01c-1.44-2.4-3.14-4.07-4.76-6.26-4.33-5.88-8.76-11.15-13.66-16.6-2.15-2.39-4.14-5.65-5.99-8.02l-5.43-6.95c-1.82-2.32-2.94-4.52-5.06-6.88-1.39-1.55-.82-5.55-4.16-6.02-1.5-5.4-2.62-4.6-4.38-8.41,1.18.17,2.61,1.64,3.74,2.2Z"/>
  <path class="st19" d="M231.29,332.33c.08,2.9-.46,5.85-.2,8.78l-.8.06c-.89-2.14-.91-3.51-.07-4.11-.96-2.48-.9-4.32.19-5.52-.33-1.63-.64-3.31-.91-5.05l.91-.43c-.41-.51-.62-1.06,0-1.37.19-.6.42-.59.68,0,2.19.47,2.24,6.92.2,7.64Z"/>
  <path class="st37" d="M145.43,220.71c6.62,9.43,13.51,18.68,20.65,27.75l-.18,1.61c13.1,14.99,25.48,30.54,37.12,46.64,8.02,12.37,16.77,24.21,26.23,35.52l.97,4.82c-.12,1.35.43,2.75.07,4.11-1.54-3.44-3.71-6.31-6.54-9.13-2.08-2.07-7.36-10.01-9.31-12.49l-6.63-8.43c-.87-1.11-13.65-20.96-14.81-22.27-3.54-3.98-4.79-7.39-7.93-9.34-1.71-1.06-1.79-4-3.33-5.35-3.14-2.75-5.97-5.55-7.58-9.5-.39-.96-1.82-1.17-2.31-1.95-3.53-5.55-7.98-10.05-12.46-14.82-2.4-2.56-3.49-6.1-5.7-8.71-2.35-2.78-4.93-5.42-6.43-8.59-1.36-2.87-3.45-5.1-5.24-7.78-1.18-1.77-1.36-4.11-3.52-5.35-.14-.34-.36-.87.12-.83,2.34,1.16,5.05,2.03,6.81,4.1Z"/>
  <path class="st64" d="M155.18,226.05c1.2-.19,1.42,1.02,2.16,1.49,6.27,3.97,11.27,9.59,15,16.87,19.66,24.13,38.36,48.81,56.09,74.05,1.09,2.35,1.74,4.89,1.96,7.61v5.47c-1.22,1.25-1.67.74-.9-.81l-14.62-20.97.3-1.02-1.81-3.11c-19.53-26.92-39.77-53.33-60.71-79.24-1-1.09-.43-1.71.93-1,.42.09,1.14.74,1.58.67Z"/>
  <path class="st20" d="M153.6,225.38c-.81.1-.6.78-.34.9l1.64.73c-1.21-.54,14.87,19.97,16.53,21.92,5.12,6,9.35,12.33,14.42,18.4l7.49,8.95c.54.64,12.82,17.5,13.74,19.14,2.59,4.59,8.27,9.9,8.11,13.32l-1.46-.24c-12.29-17.04-25.01-33.64-38.15-49.79l-.66-1.87c-.53-.06-1-.16-1.26-.46-7.85-8.86-15.34-17.95-21.6-27.68-3.17-3.22-3.78-4.93-1.82-5.16.91.68,2.83.51,3.36,1.85Z"/>
  <path class="st35" d="M150.24,223.53c-.45-.05-.42.54-.18.83,1.98.93,8.8,12.28,9.53,13.11l4.09,4.67c4.17,4.76,7.41,10,11.24,14.69.78,1.29.76,1.98-.06,2.06l-1.07-.06-7.89-8.75c-2.67-1.73-10.25-13.07-12.73-16.53-3.04-4.23-6.85-7.87-7.74-12.83,2,.19,3.32,1.7,4.82,2.82Z"/>
  <path class="st16" d="M248.01,356.05c-5.93-6.71-9.68-18.01-16.72-23.72l-.2-7.64c-.49-4.77-.63-10.4.12-15.24.26-.24.07-.73.86-1.2,2.86,4.59,6.72,8.26,9.23,13.11,1.98,3.81,3.37,8.02,6.78,10.82l-.06,23.87Z"/>
  <path class="st44" d="M176.21,237.9l5.76,4.47c4.35,6.13,8.87,12.02,13.56,17.67l-.11,1.68,20.6,27.45c1.58-.68,1.8-.04.7,1.28,4.13,5.31,8.3,10.83,11.67,16.46.73,0,1.24.63,1.52,1.87.28.13,1.08.01.69.61.22,3.19.42,6.71-.21,9.82-2.24,1.01-3.49-3-.9-3.33-11.37-17.96-24.4-34.97-37.48-51.99-7.54-9.32-15.29-19.05-22.81-28.57-.76-.96-1.41-2,.06-1.58,2.46,1.17,4.93,2.32,6.95,4.16Z"/>
  <path class="st47" d="M193.54,248.78c4.23,2.73,6.68,5.9,8.57,10.69l19.39,24.98c1.33,2.63,2.7,5.06,4.11,7.3,1,3.61,2.92,6.97,2.94,10.92l-.28.91c-8.1-11.3-16.37-22.7-24.8-34.21-6.79-7.78-13.06-15.91-18.8-24.39l.46-1.68c3.11,1.21,6.09,3.12,8.41,5.48Z"/>
  <path class="st77" d="M197.52,250.86c4.9,4.44,9.77,8.87,14.34,13.63,2.57-.61,4.39,4.11,4.37,6.27l2.46,4.02c2.31,4.84,5.45,11.65,6.93,16.97l-.46,1.53c-.65-2.96-5.06-8.41-7.04-11.01l-13.97-18.26c-1.47-1.92-3.44-3.49-4.37-6.03-1.33-3.6-2.98-7.01-6.99-8.74-.24-.1.6-.91.77-.48.97.98,2.97,1.16,3.98,2.08Z"/>
  <path class="st70" d="M176.92,237.8c2.42,2.29,6.12,2.88,8.21,5.49,1.34,1.68,4.19,6.46,6.17,8.97l7.23,9.16,6.39,7.98c3.72,4.64,6.78,9.56,10.25,14.34l8.67,11.92c1.43,1.96,3.54,3,3.63,6,.02.55.6,1.27,1.07,1,0,1.83,1.64,4.08,1.36,6.11-.78-.37-1.11-1.18-1.52-1.87-3.5-5.67-7.39-11.16-11.67-16.46-.15-.44-.63-.82-.7-1.28-6.9-9.11-13.77-18.26-20.6-27.45-1.5-1.16-3.5-3.21-4.49-4.94-1.97-3.46-4.47-5.93-6.73-9.02-2.59-3.54-4.89-7.02-7.99-9.86l.7-.1Z"/>
  <path class="st3" d="M231.08,324.69h-.68c-.21-.08-.39-.18-.41-.3-.14-.64-.86-4.05-.82-4.27.08-.48.71-.73,1.23-.9,0-3.27-.26-6.58.21-9.82.23-.31.43-.31.59.06l-.12,15.24Z"/>
  <path class="st61" d="M216.22,270.76c-1.06-1.72-2.96-4.78-4.37-6.27.68-.23,1.19-.7,2.05-1.27,1.81,1.01,4.25,8.39,2.32,7.53Z"/>
  <path class="st50" d="M284.46,187c-.1,2.34,1.81,3.42,3.15,5.26l13.88,18.98c.23.31,10.11,14.67,8.73,13.12,3.14,3.51,5.67,7.08,8.47,10.76l10.97,14.41c5.03,6.6,10.81,12.42,15.75,19.15l5.53,7.53,3.07,3.66c1.65,1.97,6.32,8.61,6.32,9.79-2.22-.22-4.15-2.12-4.72-4.49-.52-2.16-2.17-2.93-3.22-4.32l-3.54-4.69c-2.27-3.02-3.86-5.89-6.57-8.58-1.27-1.26-16.17-19.6-16.85-20.69-3.11-5.01-7.4-9.01-10.88-13.87l-10.56-14.73-4.31-6.51c-2.38-3.59-4.92-6.82-7.77-10.18-1.3-1.54-1.51-3.48-3.34-4.9-2.79-2.17-4.24-5.46-5.34-7.51l-.1-5.41c.72.76,1.38,2.13,1.33,3.26Z"/>
  <path class="st5" d="M371.99,296.59c-2.56-.95-3.01-4.07-4.5-6.28-3.62-5.38-7.17-10.53-11.2-15.53-1.79-2.22-4.11-4.28-5.36-6.79-1.66-3.32-5.08-5.51-7.69-8.83l-14.74-18.83c-2.84-3.63-5.58-6.99-8.43-10.81l-6.1-8.19-10.02-14.72c-3.17-4.66-6.31-8.9-9.82-13.34l-4.24-5.37c-1.44-1.83-2.11-3.96-4.34-5.27-1.38-.81-1.72-2.52-1.61-3.78,1.29.25,1.89,1.44,2.86,2.54l3.83,4.33c1.09,1.23,8.98,11.86,9.75,13.51,1.16,2.48,2.7,4.01,4.16,6.15l3.63,5.3,4.9,6.65,3.48,5.57,7.49,9.53c2.11,2.68,3.46,5.91,6.56,7.82.13,1.96,1.01,3.38,2.72,4.21,6.04,7.92,12.24,15.36,19.15,22.61,2.44,4.36,5.44,8.04,9.15,11.29,1.49,3.78,10.81,15.01,10.32,18.23Z"/>
  <path class="st28" d="M168.1,233.02c.15.64.57,1.58.99,2.09,20.72,25.33,40.71,51.64,59.5,78.51l.91,2.27c-.3.98.15,2.74.9,3.33v6.84c-1.47-.53-.37-2.7-1.11-3.85-5.86-9.19-8.65-11.04-13.57-19.07-2.16-3.51-5.47-6.18-7.31-9.79-3.11-6.07-8.73-11.63-12.76-17.44-4.21-6.07-8.86-11.37-13.6-17.15-2.65-3.23-4.31-6.7-7.51-9.83-5.78-5.67-6.39-9.84-11.67-15.49-1.94-2.07-3.22-4.45-5.52-5.9,3.88,1.06,7.63,2.95,10.75,5.48Z"/>
  <path class="st17" d="M169.27,233.74c-.96.04-.04.77.23,1.16,2.69.79,3.51,2.95,5.01,4.73,3.72,4.41,7.58,8.38,10.35,13.51.72,1.34,2.61,2.3,3.07,3.69,1.02,3.1,3.9,4.47,5.47,6.93,2.42,3.8,5.32,6.77,8.22,10.29,1.39,1.68,2.71,3.75,4.05,5.56l7.81,10.55,6.26,9.22,7.18,9.62c1.73,2.32,3.54,3.74,2.59,6.88-3.12-1.77-4.83-5.52-6.96-8.7s-4.64-6.21-6.95-9.42l-7.15-9.9c-1.2-1.66-2.25-3.21-3.3-4.88-2.49-3.95-8.26-10.13-10.19-13.15s-3.98-5.39-6.39-8.04c-4.46-4.9-8.25-10.41-12.03-15.87-1.5-2.17-2.56-3.44-4.73-5.17.8.64-6.27-9.8-3.7-7.74.31.26.8.55,1.17.72Z"/>
  <path class="st58" d="M309.18,231.65c-.7-.74-1.79-.97-2.72-2.29l-12.93-18.3c-3.92-5.55-7.77-9.56-10.21-14.37.17-.54-.02-1.47-.07-2.04l10.81,14.41c3.39,4.52,6.22,9.22,9.58,13.82,2.11,2.89,4.79,5.37,5.53,8.77Z"/>
  <path class="st3" d="M174.86,258.88l.56-.39c16.58,20.5,32.39,41.52,47.44,63.05,2.66,2.89,4.88,5.94,6.65,9.17l.9.81c0,1.86-.03,3.68-.19,5.52l-1.41-3.27-6.36-7.9c-5.07-6.3-4.46-6.07-8.38-11.71l-10.31-14.83-12.6-16.94c-1.62-2.18-2.86-4.14-4.67-6.25-5.38-6.23-5.1-7.05-9.65-12.19-2.79-3.16-4.89-6.79-8.18-9.68-1.34-1.17-2.48-2.7-2.77-4.21,3.51,2.28,6.37,5.62,8.96,8.81Z"/>
  <path class="st24" d="M215.19,308.73c4.08,4.39,6.05,10.15,11.95,16.5,1.59,1.72,3.05,3.2,2.37,5.49-3.77-3.41-6.64-7.49-9.7-11.75l-12.63-17.57c-1.57-2.19-2.59-4.48-4.43-6.61l-3.44-4-10.09-13.98c-2-2.77-4.23-5.28-6.54-7.78-1.47-1.58-2.45-3.56-3.71-5.12l-4.09-5.03.06-2.06,6.55,7.98c8.6,10.49,10.48,12.21,18.58,23.86l6.23,8.95c2.74,3.94,5.8,7.76,8.91,11.1Z"/>
  <path class="st60" d="M216.03,289.17c-1.06-.21-1.93-1.13-2.72-2.19l-3.47-4.63c-2.06-2.74-9.07-13.48-11.64-15.76-1.56-1.38-2.7-2.97-2.78-4.88,5.14,3.97,9.33,12.29,13.59,17.35,1.33,1.58,2.86,2.44,3.75,4.6.83,2.01,2.93,3.4,3.26,5.5Z"/>
  <path class="st60" d="M228.4,306.91c-1-1.68-3.03-3.01-4-4.87-2.73-5.23-5.52-5.28-7.67-11.6,2.76,1.88,5.55,4.81,6.93,8.14,2.3,5.55,5.22,4.44,4.74,8.33Z"/>
</svg>