<?xml version="1.0" encoding="UTF-8"?>
<svg version="1.1" xmlns="http://www.w3.org/2000/svg" width="1580" height="673">
<path d="M0 0 C0.77751617 0.00054382 1.55503235 0.00108765 2.35610962 0.00164795 C14.01536527 0.03918531 24.79596053 0.67268719 35.9375 4.375 C36.59588867 4.58398926 37.25427734 4.79297852 37.93261719 5.00830078 C55.42811582 10.6309514 70.98866203 20.49869395 86.73828125 29.75390625 C92.7068498 33.25375572 98.71981696 36.67017322 104.75 40.0625 C113.98281125 45.25998893 123.1650469 50.53778938 132.32617188 55.86035156 C137.37883111 58.79104508 142.43994278 61.70710484 147.5 64.625 C148.59932861 65.25905762 149.69865723 65.89311523 150.83129883 66.54638672 C153.07907365 67.84282184 155.32687657 69.13920823 157.57470703 70.43554688 C164.10705327 74.2030043 170.63866709 77.97173135 177.17041016 81.74023438 C183.79541381 85.56246708 190.42072064 89.38417301 197.04663086 93.20483398 C199.24715119 94.4743339 201.4471923 95.7446649 203.64672852 97.01586914 C208.55755393 99.85360995 213.472162 102.68334005 218.40625 105.48046875 C231.03759854 112.66128726 242.33602932 120.36058144 252.9375 130.375 C253.68773437 131.06078125 254.43796875 131.7465625 255.2109375 132.453125 C268.57070849 145.10975014 278.08334485 161.79026835 284.3125 179 C284.53905273 179.61915283 284.76560547 180.23830566 284.99902344 180.8762207 C289.90224666 195.31860942 290.37737561 209.35434074 290.34155273 224.4465332 C290.34726627 226.63626451 290.35423431 228.82599284 290.36235046 231.01571655 C290.38018936 236.92291677 290.37913086 242.82996768 290.37340808 248.73718667 C290.37030241 253.68702726 290.37642402 258.63683973 290.38244683 263.5866763 C290.39725936 275.94022339 290.39370446 288.29368951 290.38158352 300.64723643 C290.37104179 311.99661487 290.38762276 323.34578049 290.4129414 334.69513255 C290.43516737 345.04978665 290.44172018 355.40437098 290.43586498 365.75904721 C290.43251031 371.92650435 290.43481072 378.09381841 290.45211601 384.26125526 C290.4676931 390.06532967 290.46351113 395.86907572 290.44481087 401.67313766 C290.44115445 403.78932703 290.44414611 405.90554131 290.45469666 408.02170753 C290.61789099 443.49355047 277.94327966 474.27144429 253.125 499.625 C240.27053297 512.27885917 224.92069387 520.56305077 209.33085632 529.3266449 C203.38948088 532.67154912 197.50441555 536.10998759 191.625 539.5625 C182.87057241 544.6913053 174.06380303 549.71892592 165.22265625 554.6965332 C157.77978636 558.88952858 150.3784953 563.14975706 142.9921875 567.44140625 C137.08713335 570.87240141 131.16769204 574.27836643 125.25 577.6875 C117.73083548 582.02027979 110.22256064 586.37054123 102.73291016 590.75415039 C91.02584832 597.60610645 79.27239778 604.36755726 67.42626953 610.9765625 C65.23988899 612.20508788 63.06920239 613.45626654 60.90234375 614.71875 C42.14055149 625.45837959 22.31263027 629.80626749 0.875 629.75 C0.09748383 629.74945618 -0.68003235 629.74891235 -1.48110962 629.74835205 C-13.14036527 629.71081469 -23.92096053 629.07731281 -35.0625 625.375 C-36.05008301 625.06151611 -36.05008301 625.06151611 -37.05761719 624.74169922 C-54.56016132 619.11678434 -70.1271292 609.24368606 -85.8828125 599.984375 C-91.74017079 596.54967446 -97.64271681 593.20065235 -103.5625 589.875 C-112.38298005 584.91409162 -121.14163138 579.85558344 -129.87548828 574.74389648 C-140.48568709 568.5350731 -151.13659159 562.39764321 -161.7890625 556.26171875 C-165.0272516 554.3953162 -168.26389438 552.52626237 -171.5 550.65625 C-173.64580047 549.41660977 -175.79163383 548.17702649 -177.9375 546.9375 C-179.52957275 546.01771362 -179.52957275 546.01771362 -181.15380859 545.0793457 C-186.85561122 541.78911814 -192.56568024 538.51421414 -198.2890625 535.26171875 C-237.78903956 512.81260198 -237.78903956 512.81260198 -248.0625 503.375 C-248.57619141 502.90368652 -249.08988281 502.43237305 -249.61914062 501.94677734 C-265.01827173 487.64823657 -276.27360953 470.54219164 -283.4375 450.75 C-283.7773291 449.82127075 -283.7773291 449.82127075 -284.12402344 448.8737793 C-289.02724666 434.43139058 -289.50237561 420.39565926 -289.46655273 405.3034668 C-289.47226627 403.11373549 -289.47923431 400.92400716 -289.48735046 398.73428345 C-289.50518936 392.82708323 -289.50413086 386.92003232 -289.49840808 381.01281333 C-289.49530241 376.06297274 -289.50142402 371.11316027 -289.50744683 366.1633237 C-289.52225936 353.80977661 -289.51870446 341.45631049 -289.50658352 329.10276357 C-289.49604179 317.75338513 -289.51262276 306.40421951 -289.5379414 295.05486745 C-289.56016737 284.70021335 -289.56672018 274.34562902 -289.56086498 263.99095279 C-289.55751031 257.82349565 -289.55981072 251.65618159 -289.57711601 245.48874474 C-289.5926931 239.68467033 -289.58851113 233.88092428 -289.56981087 228.07686234 C-289.56615445 225.96067297 -289.56914611 223.84445869 -289.57969666 221.72829247 C-289.74289099 186.25644953 -277.06827966 155.47855571 -252.25 130.125 C-239.38937959 117.46508348 -224.03006108 109.1782989 -208.43319702 100.40975952 C-202.60531005 97.12882833 -196.83027756 93.76038186 -191.0625 90.375 C-182.36291293 85.28110047 -173.63058519 80.24680862 -164.875 75.25 C-164.28046021 74.91067444 -163.68592041 74.57134888 -163.07336426 74.22174072 C-158.10619898 71.38744704 -153.13721345 68.55635143 -148.16748047 65.7265625 C-137.19451061 59.47781796 -126.258967 53.16993036 -115.35668945 46.79858398 C-104.67717905 40.55968594 -93.97299545 34.36444914 -83.24658203 28.20654297 C-80.11726588 26.40650235 -76.99411032 24.59609801 -73.87109375 22.78515625 C-50.04798959 9.04456204 -27.86959838 -0.07314952 0 0 Z M-29.0625 35.375 C-30.45947837 35.78048936 -31.85661764 36.18542474 -33.25390625 36.58984375 C-55.34210753 43.23898298 -75.16044312 54.42780114 -94.75488281 66.3671875 C-99.9537321 69.5230287 -105.18906318 72.6149847 -110.4375 75.6875 C-111.41783203 76.26185791 -112.39816406 76.83621582 -113.40820312 77.42797852 C-120.72652168 81.67970678 -128.17863769 85.61676595 -135.70605469 89.48266602 C-141.52238416 92.49536539 -147.05350344 95.77935125 -152.55371094 99.32958984 C-158.97819561 103.42730899 -165.63777019 107.07949155 -172.3125 110.75 C-189.06090726 119.98594969 -205.37658452 129.04584284 -220.0625 141.375 C-220.58465088 141.79998779 -221.10680176 142.22497559 -221.64477539 142.6628418 C-224.5683199 145.05086532 -227.26043822 147.47474776 -229.75 150.3125 C-230.59111328 151.25416016 -230.59111328 151.25416016 -231.44921875 152.21484375 C-235.72807849 157.94416442 -236.49655583 162.38164749 -236.3125 169.3125 C-236.30734375 170.08529297 -236.3021875 170.85808594 -236.296875 171.65429688 C-236.14347583 182.99624815 -233.71322101 188.46882144 -225.90234375 196.6328125 C-215.28187251 206.81002534 -201.72622008 213.14874992 -188.89746094 220.07348633 C-184.35039842 222.53798791 -179.87990299 225.01994318 -175.5625 227.875 C-170.42477538 231.27000843 -165.042858 234.14640129 -159.625 237.0625 C-152.40365435 240.95007609 -145.3072801 244.96844178 -138.3125 249.25 C-130.8032979 253.83762027 -123.14852829 258.06502613 -115.375 262.1875 C-71.34141901 285.60220779 -32.27297781 309.9128178 -16.484375 359.4375 C-16.00535905 361.08186845 -15.53257951 362.72805461 -15.0625 364.375 C-14.73426113 365.50401198 -14.40602226 366.63302397 -14.06783676 367.79624844 C-11.40254032 377.37936682 -10.47777407 386.35423498 -10.51660156 396.33032227 C-10.50783527 397.85200541 -10.49733906 399.37367939 -10.48527527 400.89533997 C-10.45771154 404.97852634 -10.45400465 409.06140777 -10.45499516 413.14467359 C-10.45182767 417.45808241 -10.42611456 421.77136172 -10.40301514 426.08470154 C-10.36261794 434.25556326 -10.34216413 442.42634582 -10.32904124 450.59729189 C-10.3132465 459.81416105 -10.27474029 469.03089041 -10.23444796 478.24767983 C-10.17531738 491.90252616 -10.12603271 505.55737683 -10.09591246 519.21231925 C-10.09254461 520.73455141 -10.08903143 522.25678324 -10.08536577 523.77901471 C-10.06807756 531.01697896 -10.05763916 538.25467543 -10.08435059 545.49264526 C-10.08753674 546.55743323 -10.09072289 547.6222212 -10.09400558 548.71927547 C-10.10069103 550.62637292 -10.11049503 552.53346378 -10.12440872 554.44052219 C-10.16944378 567.58419141 -8.06783175 578.85562896 1.1640625 588.65234375 C7.63805875 594.94096125 14.37509227 596.3150459 23.19921875 596.41015625 C41.17725229 595.56967806 56.21404677 589.6665179 71.1875 580.0234375 C76.87033162 576.36987531 82.70935219 573.07134033 88.625 569.8125 C97.42873307 564.92308391 106.18070731 559.95663003 114.875 554.875 C115.83817139 554.31224365 116.80134277 553.7494873 117.79370117 553.16967773 C125.8216543 548.46561823 133.83365885 543.74034535 141.68847656 538.7512207 C152.39300601 531.96117981 163.36515069 525.78044701 174.57421875 519.86328125 C213.67047192 499.213894 246.09639809 476.69089582 259.69140625 432.6875 C264.6338263 415.9490722 266.26751909 399.14116801 266.10449219 381.78955078 C266.09731521 380.20065675 266.09103067 378.61175848 266.08555603 377.02285767 C266.06813205 372.75817355 266.03771428 368.49367856 266.00422192 364.22909403 C265.97065216 359.73193971 265.94762611 355.23472836 265.9229126 350.73751831 C265.87973317 343.18774246 265.82792159 335.6380628 265.77099609 328.08837891 C265.70565178 319.40656574 265.65457345 310.72475661 265.61105418 302.04280865 C265.56852074 293.63434943 265.51520058 285.22598955 265.45731354 276.81762314 C265.43307288 273.26550189 265.41257691 269.71338986 265.39528656 266.16122818 C265.37440516 261.96341859 265.34396863 257.76577597 265.30670357 253.5680809 C265.29462103 252.04372092 265.28560543 250.51933238 265.28020287 248.99493408 C265.22491159 234.46720654 264.24900316 219.88331601 260.6875 205.75 C260.36543579 204.44216553 260.36543579 204.44216553 260.03686523 203.10791016 C251.79862592 170.8220407 232.41914526 145.6061783 203.9375 128.375 C196.29488423 123.88947846 188.58060287 119.53001456 180.86526489 115.17127991 C176.35894343 112.62240493 171.88785072 110.02004662 167.4375 107.375 C160.20947492 103.09165829 152.92206104 98.91441944 145.625 94.75 C145.02933228 94.41002991 144.43366455 94.07005981 143.81994629 93.7197876 C138.92217718 90.92503866 134.02285428 88.1330177 129.12335205 85.34130859 C82.04567994 58.51555034 82.04567994 58.51555034 71.1875 51.375 C42.44372066 32.68463387 4.03762374 24.95683926 -29.0625 35.375 Z " fill="#D5A456" transform="translate(325.0625,15.625)"/>
<path d="M0 0 C0.639375 0.33 1.27875 0.66 1.9375 1 C3.76794567 2.07271225 3.76794567 2.07271225 5 2 C5.99 2.66 6.98 3.32 8 4 C8.33 3.67 8.66 3.34 9 3 C9.66 3 10.32 3 11 3 C11.2475 3.78375 11.495 4.5675 11.75 5.375 C13.19494285 8.40937999 14.05565819 8.67029725 17 10 C17.33 10.99 17.66 11.98 18 13 C20.33010909 13.67784992 22.66359824 14.34416793 25 15 C25.99 16.485 25.99 16.485 27 18 C27.99 17.67 28.98 17.34 30 17 C32.1875 17.4375 32.1875 17.4375 34 18 C33.505 19.485 33.505 19.485 33 21 C36.89459074 21.21081851 36.89459074 21.21081851 40 20 C40.5878125 21.2065625 40.5878125 21.2065625 41.1875 22.4375 C42.74563357 25.23494232 42.74563357 25.23494232 45.5625 25.625 C46.366875 25.74875 47.17125 25.8725 48 26 C48.66 26.99 49.32 27.98 50 29 C50.825 29.165 51.65 29.33 52.5 29.5 C53.325 29.665 54.15 29.83 55 30 C55.66 30.99 56.32 31.98 57 33 C57.66 33 58.32 33 59 33 C59.2475 33.61875 59.495 34.2375 59.75 34.875 C61.20628639 37.35068687 62.37812506 37.95125002 65 39 C65 39.66 65 40.32 65 41 C65.61488281 41.18175781 66.22976563 41.36351562 66.86328125 41.55078125 C68.07564453 41.92783203 68.07564453 41.92783203 69.3125 42.3125 C70.11300781 42.55613281 70.91351563 42.79976562 71.73828125 43.05078125 C74.11937929 44.05010219 75.25768887 45.14085752 77 47 C78.32860925 47.35169068 79.66158328 47.68770276 81 48 C81.33 48.66 81.66 49.32 82 50 C83.3153341 50.70151152 84.65117592 51.36525925 86 52 C89 54 89 54 89.75 56.5 C90 59 90 59 89 61 C88.34 61 87.68 61 87 61 C86.87753906 61.57234375 86.75507813 62.1446875 86.62890625 62.734375 C85.97237132 65.09953191 85.06276488 67.07206797 83.9375 69.25 C83.57527344 69.95640625 83.21304688 70.6628125 82.83984375 71.390625 C82.42412109 72.18726563 82.42412109 72.18726563 82 73 C81.34 73 80.68 73 80 73 C80 74.65 80 76.3 80 78 C80.639375 78.28875 81.27875 78.5775 81.9375 78.875 C84 80 84 80 85 82 C85.598125 82.12375 86.19625 82.2475 86.8125 82.375 C89.89148307 83.25470945 91.10385607 84.42666181 93 87 C93.25 90.75 93.25 90.75 93 94 C93.78375 94.28875 94.5675 94.5775 95.375 94.875 C98 96 98 96 100 98 C100.125 101.125 100.125 101.125 100 104 C100.66 104 101.32 104 102 104 C102 104.66 102 105.32 102 106 C103.65 106.66 105.3 107.32 107 108 C106.97679687 108.76183594 106.95359375 109.52367187 106.9296875 110.30859375 C106.81490399 116.87585004 107.03912083 122.70454583 109 129 C109.99 129.33 110.98 129.66 112 130 C113.53515625 132.46875 113.53515625 132.46875 115.0625 135.5 C116.80258773 139.45978058 116.80258773 139.45978058 120 142 C121.88141079 144.90050829 123.50094109 147.88656995 125 151 C125.66 151 126.32 151 127 151 C129.25764387 153.46929798 130.8287717 155.53982393 132 158.6875 C133.23393456 161.54097368 134.21070437 161.81666246 137 163 C138.54498411 164.42138538 139.90668875 165.8880265 141.25 167.5 C145.38487138 171.04417547 150.01169907 172.04778454 155.25 172.8125 C159.72211657 173.60769398 159.72211657 173.60769398 162.125 177 C163 180 163 180 163 182 C163.721875 181.835 164.44375 181.67 165.1875 181.5 C168 182 168 182 169.4453125 183.7109375 C173 189.3375 173 189.3375 173 192 C174.98 192 176.96 192 179 192 C179.433125 192.886875 179.86625 193.77375 180.3125 194.6875 C181.76900165 197.54655879 183.34006463 200.25749809 185 203 C185.67439039 204.32944343 186.34238031 205.66218141 187 207 C195.44478642 204.25262948 203.80907828 201.4498235 212 198 C212.66 198.66 213.32 199.32 214 200 C213.01 200 212.02 200 211 200 C211.33 201.65 211.66 203.3 212 205 C212.62003906 205.06703125 213.24007812 205.1340625 213.87890625 205.203125 C216 206 216 206 217.08984375 208.109375 C217.36957031 208.98078125 217.64929688 209.8521875 217.9375 210.75 C219.55586403 215.27626116 221.48505674 217.68033137 225 221 C225 225 225 225 224 227 C224.33 227.33 224.66 227.66 225 228 C225.1058505 230.69535254 225.1467784 233.3652104 225.14526367 236.0612793 C225.14862228 236.907005 225.1519809 237.75273071 225.15544128 238.62408447 C225.16499388 241.4408106 225.16689755 244.25747739 225.16796875 247.07421875 C225.17118198 249.03465296 225.17454611 250.99508693 225.17805481 252.95552063 C225.18405935 257.08078567 225.18589372 261.20602973 225.18530273 265.33129883 C225.18520186 270.58408772 225.19876975 275.83673914 225.21607494 281.08949566 C225.22727791 285.14848937 225.2292193 289.20745094 225.22869301 293.26645851 C225.22986391 295.20027954 225.23423496 297.13410164 225.24202538 299.06790733 C225.2909862 312.49511863 224.57889939 325.26813888 221.375 338.375 C221.11460937 339.45523437 220.85421875 340.53546875 220.5859375 341.6484375 C220.39257812 342.42445313 220.19921875 343.20046875 220 344 C217.5 342.625 217.5 342.625 215 341 C215 340.34 215 339.68 215 339 C214.43023438 338.73445313 213.86046875 338.46890625 213.2734375 338.1953125 C210.87422821 336.93387257 208.80987227 335.47823392 206.625 333.875 C198.1542208 327.88832027 189.11367734 322.99130752 179.8125 318.4375 C174.69049098 315.91894308 169.97009043 313.12729957 165.20703125 309.99609375 C161.0818643 307.4285416 156.83340581 305.12699489 152.5625 302.8125 C145.56317436 299.01374879 138.68236535 295.0703773 131.875 290.9375 C121.16778976 284.44557126 110.25342899 278.3773159 99.23828125 272.42578125 C57.20843953 249.64528831 22.15938153 226.47436531 6.25 179.375 C5.96817871 178.540896 5.68635742 177.70679199 5.39599609 176.84741211 C1.39718456 164.56807651 -0.44155676 153.09828977 -0.34057617 140.20385742 C-0.33972775 138.6650138 -0.34020923 137.12616897 -0.34190369 135.58732605 C-0.34275667 131.45175487 -0.32524528 127.31645019 -0.30418181 123.18094039 C-0.28529744 118.84348549 -0.28365538 114.506023 -0.28010559 110.16853333 C-0.2708194 101.97365316 -0.24625254 93.77889454 -0.21605712 85.58406764 C-0.18240578 76.24659706 -0.16600024 66.90912036 -0.15097082 57.57160413 C-0.11969952 38.38100079 -0.06700645 19.1905102 0 0 Z M13 9 C14 11 14 11 14 11 Z M30 19 C29.67 19.66 29.34 20.32 29 21 C29.66 21 30.32 21 31 21 C30.67 20.34 30.34 19.68 30 19 Z M51 31 C52 33 52 33 52 33 Z M78 49 C79 51 79 51 79 51 Z " fill="#E6C26E" transform="translate(364,103)"/>
<path d="M0 0 C107.75219684 0 107.75219684 0 121.5 12.22265625 C133.49897437 24.67553919 137.11587105 41.36171052 137.203125 58.1953125 C137.20882507 59.06461395 137.21452515 59.93391541 137.22039795 60.82955933 C137.22980352 62.66337891 137.23636415 64.49721506 137.24023438 66.33105469 C137.24989869 69.09601403 137.28094754 71.8602159 137.3125 74.625 C137.40562945 90.1240273 136.38740927 105.54620264 125.125 117.375 C121.05745652 121.17342435 116.79263364 125 111 125 C111 125.66 111 126.32 111 127 C111.73476562 127.1134375 112.46953125 127.226875 113.2265625 127.34375 C120.52798187 129.07140979 126.15521738 134.45863526 130.4375 140.40625 C146.30250551 166.74215915 143.52456605 208.36528958 136.6706543 237.03710938 C132.8050314 251.95915072 126.79706476 267.68378948 113.25 276.25 C79.84872322 294.96491386 32.99986191 284 0 284 C0 190.28 0 96.56 0 0 Z M57 44 C57 64.46 57 84.92 57 106 C71.11501535 107.56173762 71.11501535 107.56173762 77 102 C80.13257652 96.04810461 80.16482072 89.41236944 80.203125 82.8203125 C80.21167511 81.66292068 80.21167511 81.66292068 80.22039795 80.48214722 C80.22980213 78.85676424 80.23636359 77.2313626 80.24023438 75.60595703 C80.24994369 73.13930582 80.28101123 70.67348757 80.3125 68.20703125 C80.31903125 66.61979656 80.32428125 65.03255597 80.328125 63.4453125 C80.3404718 62.71796906 80.3528186 61.99062561 80.36553955 61.24124146 C80.34444575 56.31569737 79.90660157 51.12392027 77 47 C70.03103721 42.95650161 70.03103721 42.95650161 57 44 Z M57 152 C57 178.73 57 205.46 57 233 C64.7719139 234.11027341 69.36070114 233.78531642 76.3125 230.375 C80.42733969 226.73863005 82.6200756 222.79161018 83.36764526 217.2986145 C83.51072194 214.17245596 83.52835159 211.07067658 83.49609375 207.94140625 C83.49754898 206.79768051 83.49900421 205.65395477 83.50050354 204.47557068 C83.4988496 202.06596317 83.48734529 199.65634454 83.46655273 197.24682617 C83.43761829 193.57750101 83.4459523 189.90962451 83.45898438 186.24023438 C83.45274544 183.89061804 83.44435329 181.54100623 83.43359375 179.19140625 C83.43652939 178.10364395 83.43946503 177.01588165 83.44248962 175.89515686 C83.36054311 169.21109914 83.21018427 161.67273966 78.58372498 156.37965393 C71.55268215 150.25459685 67.39294029 152 57 152 Z " fill="#FFFFFF" transform="translate(1214,173)"/>
<path d="M0 0 C18.48 0 36.96 0 56 0 C56.01458252 6.48043945 56.02916504 12.96087891 56.04418945 19.63769531 C56.09452317 41.04749914 56.1609664 62.45723058 56.23571491 83.86696243 C56.28064205 96.84782346 56.32006389 109.82865723 56.34643555 122.80957031 C56.3694405 134.1263718 56.40286658 145.44308685 56.44870156 156.75981975 C56.47259993 162.74953279 56.49135095 168.73916039 56.49761391 174.72891998 C56.50367999 180.37271185 56.52373513 186.0162852 56.55427551 191.65999603 C56.56303129 193.72546367 56.56678345 195.79095988 56.56500816 197.85644531 C55.70989416 215.07096915 55.70989416 215.07096915 61.98268604 230.24534988 C65.61995477 233.40902898 68.22660513 233.32361999 73 233 C75.87454636 232.22556103 75.87454636 232.22556103 78 230 C81.95894319 221.88416646 82.14746604 212.80619787 82.15821838 203.95166016 C82.16315636 203.0750281 82.16809434 202.19839605 82.17318195 201.29519939 C82.18846201 198.37648889 82.19689166 195.45780021 82.20532227 192.5390625 C82.21490826 190.43938507 82.22491876 188.33970955 82.23532104 186.24003601 C82.26229797 180.5526868 82.28334649 174.86532935 82.30332303 169.17795181 C82.32522717 163.22954059 82.35259416 157.28115455 82.37937927 151.33276367 C82.42924635 140.07430789 82.47420734 128.81583808 82.51740164 117.55735493 C82.56682521 104.73756595 82.62172433 91.91780224 82.67708123 79.09803772 C82.79080939 52.73204759 82.89694555 26.36603416 83 0 C101.48 0 119.96 0 139 0 C139.06787165 28.33902545 139.12307162 56.67798451 139.15543652 85.01707077 C139.17086737 98.17710034 139.19188418 111.33707561 139.22631836 124.49707031 C139.25633692 135.97504059 139.27560244 147.45297152 139.28226548 158.93097997 C139.28615673 165.00146819 139.2952219 171.07184388 139.31719017 177.14229584 C139.33775263 182.87141485 139.3437944 188.60037639 139.33932304 194.32952881 C139.3401395 196.41746124 139.34598617 198.50539967 139.35761642 200.59329987 C139.48950234 225.52041389 137.50162412 251.57659132 119.6875 270.8125 C115.59177886 274.64250321 110.92780603 277.37183678 106 280 C105.30261719 280.3815625 104.60523438 280.763125 103.88671875 281.15625 C84.87202695 290.60988208 58.46724731 289.39682895 38.74609375 282.93359375 C24.5438014 277.54774321 13.62962894 266.89316435 7.27734375 253.1328125 C0.37000188 236.19187005 -0.2918599 219.96970323 -0.22705078 201.96166992 C-0.22648579 199.75288396 -0.22680494 197.54409763 -0.22793579 195.33531189 C-0.22850687 189.37342857 -0.21679239 183.41162661 -0.20278788 177.44976211 C-0.19023949 171.20644661 -0.18910679 164.96312901 -0.18673706 158.71980286 C-0.18123795 148.25190865 -0.1687669 137.78404211 -0.15087891 127.31616211 C-0.13248416 116.54044746 -0.11834532 105.76474088 -0.10986328 94.98901367 C-0.10933783 94.32334207 -0.10881239 93.65767046 -0.10827102 92.97182699 C-0.1056607 89.63191333 -0.10313786 86.29199961 -0.10064721 82.95208585 C-0.07977257 55.30136518 -0.04311146 27.65069556 0 0 Z " fill="#FFFFFF" transform="translate(1051,173)"/>
<path d="M0 0 C12.74443834 11.06015134 19.13314408 26.66033347 20.3218689 43.32318115 C20.40582523 47.09165634 20.4009236 50.84808606 20.35546875 54.6171875 C20.34985285 55.98722868 20.34559223 57.35727601 20.34260559 58.72732544 C20.33131323 62.28161129 20.30198719 65.83551177 20.26849365 69.38964844 C20.23744971 73.03705544 20.22386194 76.6845284 20.20898438 80.33203125 C20.17870009 87.45085785 20.11994452 94.56863517 20.0625 101.6875 C1.2525 101.6875 -17.5575 101.6875 -36.9375 101.6875 C-37.3125 78.3125 -37.3125 78.3125 -37.41552734 70.99462891 C-37.45077813 69.05109359 -37.48670425 67.10757036 -37.5234375 65.1640625 C-37.53479736 64.17881592 -37.54615723 63.19356934 -37.55786133 62.1784668 C-37.72326546 51.20841046 -37.72326546 51.20841046 -41.5 41.125 C-45.98642146 38.47916171 -50.75135905 38.30730157 -55.8125 39.1875 C-59.67073696 41.91096138 -60.60782989 46.04865696 -61.50726795 50.51990795 C-61.9475507 53.76149846 -62.06624664 56.84837053 -62.07121277 60.11897278 C-62.07547775 61.39316574 -62.07974274 62.6673587 -62.08413696 63.98016357 C-62.0837875 65.37976077 -62.083326 66.77935795 -62.08276367 68.17895508 C-62.08575806 69.66275619 -62.08916123 71.14655652 -62.09294128 72.63035583 C-62.10175736 76.65114194 -62.1041184 80.67190674 -62.10475707 84.69270158 C-62.10546897 87.20779722 -62.10760594 89.72288749 -62.11025429 92.2379818 C-62.11950001 101.02104408 -62.12359017 109.80409121 -62.12280273 118.5871582 C-62.12220225 126.7600516 -62.13275033 134.93287894 -62.1485464 143.10575563 C-62.16164441 150.13441235 -62.16698568 157.16304754 -62.16634732 164.19171637 C-62.16609299 168.38434816 -62.16890849 172.57692121 -62.17952538 176.76954079 C-62.18924441 180.71515453 -62.18925959 184.66065384 -62.18200874 188.60627174 C-62.1809676 190.04896208 -62.18329769 191.49165968 -62.1893692 192.93433762 C-62.33267552 205.70760804 -62.33267552 205.70760804 -58.375 217.6875 C-54.81083898 220.61193981 -51.47549538 220.94727791 -46.9375 220.6875 C-42.95041375 219.30068739 -42.14138352 218.08070393 -40.1875 214.3125 C-38.49336558 209.39951018 -37.81271171 205.07614027 -37.73217773 199.88745117 C-37.71199585 198.73079956 -37.69181396 197.57414795 -37.67102051 196.38244629 C-37.65454468 195.1772937 -37.63806885 193.97214111 -37.62109375 192.73046875 C-37.60244263 191.61498657 -37.5837915 190.49950439 -37.5645752 189.35021973 C-37.49638737 185.19189207 -37.43616862 181.03343683 -37.375 176.875 C-37.230625 167.573125 -37.08625 158.27125 -36.9375 148.6875 C-17.7975 148.6875 1.3425 148.6875 21.0625 148.6875 C21.18282643 164.22743535 21.18282643 164.22743535 21.20898438 170.96289062 C21.22676793 175.52004765 21.24756889 180.07702024 21.28881836 184.6340332 C21.75476353 237.51455545 21.75476353 237.51455545 3.09375 257.8125 C-13.41189747 273.04848228 -35.49025801 275.52873967 -56.91796875 275.03515625 C-74.67829567 274.25934112 -90.71892244 267.33262435 -103.08984375 254.4453125 C-114.31282427 241.30516257 -120.03400533 225.02128833 -120.07794189 207.81669617 C-120.08091302 207.1618799 -120.08388414 206.50706362 -120.0869453 205.83240443 C-120.09555572 203.65738067 -120.09713403 201.48241245 -120.09863281 199.30737305 C-120.1032667 197.73950587 -120.10829212 196.1716398 -120.11367798 194.60377502 C-120.12675562 190.35518297 -120.13323875 186.10660668 -120.13768864 181.85799766 C-120.14062901 179.19558552 -120.14473577 176.53317759 -120.14919281 173.87076759 C-120.16286028 165.51786021 -120.1725286 157.16496258 -120.1763947 148.8120448 C-120.18086306 139.21367683 -120.1983571 129.61545214 -120.2273953 120.01712769 C-120.24912808 112.57132869 -120.25910525 105.12556963 -120.26043582 97.6797393 C-120.2614763 93.24591123 -120.26721958 88.81221797 -120.28525543 84.37842369 C-120.30193624 80.19635146 -120.30379652 76.01451242 -120.29511642 71.83241844 C-120.2943564 70.31287504 -120.29854857 68.79331804 -120.30857468 67.27380753 C-120.4583953 43.11434049 -115.88634026 18.20452951 -98.62109375 0.1953125 C-73.11083955 -23.64396435 -26.46359085 -20.35107666 0 0 Z " fill="#FFFFFF" transform="translate(1011.9375,185.3125)"/>
<path d="M0 0 C37.95 0 75.9 0 115 0 C115 18.15 115 36.3 115 55 C96.52 55 78.04 55 59 55 C59 73.15 59 91.3 59 110 C76.49 110 93.98 110 112 110 C112 127.82 112 145.64 112 164 C94.51 164 77.02 164 59 164 C59 185.12 59 206.24 59 228 C78.47 228 97.94 228 118 228 C118 246.48 118 264.96 118 284 C79.06 284 40.12 284 0 284 C0 190.28 0 96.56 0 0 Z " fill="#FFFFFF" transform="translate(1375,173)"/>
<path d="M0 0 C18.48 0 36.96 0 56 0 C56 93.72 56 187.44 56 284 C37.52 284 19.04 284 0 284 C0 190.28 0 96.56 0 0 Z " fill="#FFFFFF" transform="translate(812,173)"/>
<path d="M0 0 C4.47870656 2.15937638 7.18198188 4.92952939 10 9 C11.72237197 14.1671159 11.65561622 19.10599758 9.875 24.25 C6.36273466 29.4013225 2.1624975 32.79166716 -4 34 C-10.00147679 34.08650777 -14.39532631 33.06924651 -19 29 C-23.18235797 23.49689741 -23.9160844 18.83104914 -23 12 C-19.28714387 1.06770138 -10.48978779 -0.98856639 0 0 Z M-15 12 C-16.32861421 16.29845774 -16.36297877 18.19842188 -14.5 22.3125 C-11.40071533 25.64423102 -9.50372368 26.45644714 -5 27 C-1.00275491 25.77007844 0.56404022 24.63284484 2.9375 21.1875 C4.18028181 17.45915458 4.26457332 15.71468412 3 12 C0.98605167 9.19267808 -0.49836596 7.37616691 -3.93359375 6.515625 C-9.22718737 6.15538044 -11.87652756 7.55141804 -15 12 Z " fill="#FFFFFF" transform="translate(1327,493)"/>
<path d="M0 0 C4.47870656 2.15937638 7.18198188 4.92952939 10 9 C11.72237197 14.1671159 11.65561622 19.10599758 9.875 24.25 C6.36273466 29.4013225 2.1624975 32.79166716 -4 34 C-10.00147679 34.08650777 -14.39532631 33.06924651 -19 29 C-23.18235797 23.49689741 -23.9160844 18.83104914 -23 12 C-19.28714387 1.06770138 -10.48978779 -0.98856639 0 0 Z M-15 12 C-16.32861421 16.29845774 -16.36297877 18.19842188 -14.5 22.3125 C-11.40071533 25.64423102 -9.50372368 26.45644714 -5 27 C-1.00275491 25.77007844 0.56404022 24.63284484 2.9375 21.1875 C4.18028181 17.45915458 4.26457332 15.71468412 3 12 C0.98605167 9.19267808 -0.49836596 7.37616691 -3.93359375 6.515625 C-9.22718737 6.15538044 -11.87652756 7.55141804 -15 12 Z " fill="#FFFFFF" transform="translate(1144,493)"/>
<path d="M0 0 C4.47870656 2.15937638 7.18198188 4.92952939 10 9 C11.72237197 14.1671159 11.65561622 19.10599758 9.875 24.25 C6.36273466 29.4013225 2.1624975 32.79166716 -4 34 C-10.00147679 34.08650777 -14.39532631 33.06924651 -19 29 C-23.18235797 23.49689741 -23.9160844 18.83104914 -23 12 C-19.28714387 1.06770138 -10.48978779 -0.98856639 0 0 Z M-15 12 C-16.32861421 16.29845774 -16.36297877 18.19842188 -14.5 22.3125 C-11.40071533 25.64423102 -9.50372368 26.45644714 -5 27 C-1.00275491 25.77007844 0.56404022 24.63284484 2.9375 21.1875 C4.18028181 17.45915458 4.26457332 15.71468412 3 12 C0.98605167 9.19267808 -0.49836596 7.37616691 -3.93359375 6.515625 C-9.22718737 6.15538044 -11.87652756 7.55141804 -15 12 Z " fill="#FFFFFF" transform="translate(917,493)"/>
<path d="M0 0 C3.37892802 1.68946401 5.17383879 2.89039192 7.8203125 5.40625 C8.52027344 6.06753906 9.22023438 6.72882813 9.94140625 7.41015625 C10.66199219 8.09980469 11.38257813 8.78945313 12.125 9.5 C12.85332031 10.18964844 13.58164063 10.87929688 14.33203125 11.58984375 C16.91245892 14.03671879 19.48540107 16.48540107 22 19 C22.33 13.06 22.66 7.12 23 1 C25.31 1 27.62 1 30 1 C30 12.55 30 24.1 30 36 C21 29.25 21 29.25 18.15625 26.5703125 C17.55039063 26.003125 16.94453125 25.4359375 16.3203125 24.8515625 C15.71960937 24.28179688 15.11890625 23.71203125 14.5 23.125 C13.86835937 22.53203125 13.23671875 21.9390625 12.5859375 21.328125 C11.05394022 19.88897604 9.52647459 18.44500544 8 17 C7.67 22.61 7.34 28.22 7 34 C4.69 34 2.38 34 0 34 C0 22.78 0 11.56 0 0 Z " fill="#FFFFFF" transform="translate(1345,492)"/>
<path d="M0 0 C3.37892802 1.68946401 5.17383879 2.89039192 7.8203125 5.40625 C8.52027344 6.06753906 9.22023438 6.72882813 9.94140625 7.41015625 C10.66199219 8.09980469 11.38257813 8.78945313 12.125 9.5 C12.85332031 10.18964844 13.58164062 10.87929688 14.33203125 11.58984375 C16.91245892 14.03671879 19.48540107 16.48540107 22 19 C22.33 13.06 22.66 7.12 23 1 C25.31 1 27.62 1 30 1 C30 12.55 30 24.1 30 36 C21 29.25 21 29.25 18.15625 26.5703125 C17.55039062 26.003125 16.94453125 25.4359375 16.3203125 24.8515625 C15.71960938 24.28179688 15.11890625 23.71203125 14.5 23.125 C13.86835937 22.53203125 13.23671875 21.9390625 12.5859375 21.328125 C11.05394022 19.88897604 9.52647459 18.44500544 8 17 C7.67 22.61 7.34 28.22 7 34 C4.69 34 2.38 34 0 34 C0 22.78 0 11.56 0 0 Z " fill="#FFFFFF" transform="translate(935,492)"/>
<path d="M0 0 C19.46268657 0 19.46268657 0 24 4 C28.25665763 9.10798916 28.62889072 13.62111787 28.3828125 20.19140625 C27.67588183 25.37796902 25.3353009 27.88453522 21.4375 31.140625 C16.96255425 33.56116384 13.6026084 33.4547951 8.625 33.25 C4.355625 33.12625 4.355625 33.12625 0 33 C0 22.11 0 11.22 0 0 Z M7 7 C7 13.27 7 19.54 7 26 C14.45692046 26.7173806 14.45692046 26.7173806 17.9375 24.125 C20.5910687 21.39102013 20.95036258 20.52615669 21.3125 16.6875 C20.95124058 12.42463889 19.98007946 10.98007946 17 8 C14.18010841 6.40371521 14.18010841 6.40371521 7 7 Z " fill="#FFFFFF" transform="translate(1162,493)"/>
<path d="M0 0 C16 0 16 0 21 3 C23.81849218 7.22773827 23.566354 11.0304431 23 16 C22.02763513 17.6829392 21.03435556 19.35443434 20 21 C21.02128046 25.31207305 23.7631664 29.19738288 26 33 C22.84271518 33.56831127 20.13180197 33.77910622 17 33 C15.02096925 30.82694662 13.74288399 28.66877738 12.38671875 26.06640625 C11.0194574 23.52998724 11.0194574 23.52998724 7 23 C7 26.3 7 29.6 7 33 C4.69 33 2.38 33 0 33 C0 22.11 0 11.22 0 0 Z M7 7 C7 9.97 7 12.94 7 16 C10.41642759 16.25015873 10.41642759 16.25015873 14 16 C16.31543207 13.23011924 16.31543207 13.23011924 15.6875 10.375 C15.2258486 8.06498035 15.2258486 8.06498035 14 7 C11.66702567 6.95907063 9.33294775 6.95758277 7 7 Z " fill="#FFFFFF" transform="translate(1093,493)"/>
<path d="M0 0 C2.31 0 4.62 0 7 0 C7.01981934 0.65073486 7.03963867 1.30146973 7.06005859 1.97192383 C7.15529299 4.91919151 7.26497818 7.86574885 7.375 10.8125 C7.4059375 11.83666016 7.436875 12.86082031 7.46875 13.91601562 C7.50742188 14.89892578 7.54609375 15.88183594 7.5859375 16.89453125 C7.6173584 17.80050049 7.6487793 18.70646973 7.68115234 19.63989258 C7.86027919 22.26525392 7.86027919 22.26525392 10 25 C13.64787108 26.15195929 15.1627935 25.95930163 19 25 C19.33 16.75 19.66 8.5 20 0 C22.31 0 24.62 0 27 0 C27.14570522 4.20796686 27.23421087 8.41528166 27.3125 12.625 C27.35439453 13.81480469 27.39628906 15.00460937 27.43945312 16.23046875 C27.57760422 26.12208701 27.57760422 26.12208701 24.65625 29.74609375 C21.21386714 32.66705685 18.58977106 34.01019595 14.015625 33.9921875 C9.72097325 33.62084543 6.38980533 32.80869584 3 30 C-0.98373849 24.26379963 -0.34116534 18.31535265 -0.1875 11.625 C-0.17396484 10.50738281 -0.16042969 9.38976562 -0.14648438 8.23828125 C-0.11127164 5.49168789 -0.06202096 2.74609711 0 0 Z " fill="#FFFFFF" transform="translate(1196,493)"/>
<path d="M0 0 C16.65384615 0 16.65384615 0 21.8125 4.625 C23.67445261 8.34890521 23.53907879 11.92048484 23 16 C21.74636835 18.94603438 20.90306767 20.44142151 18.1875 22.12109375 C14.48253848 23.60969436 10.95747735 23.11639639 7 23 C7 26.3 7 29.6 7 33 C4.69 33 2.38 33 0 33 C0 22.11 0 11.22 0 0 Z M7 7 C7 9.97 7 12.94 7 16 C11.16938808 16.33467338 11.16938808 16.33467338 14.9375 14.8125 C16.25545189 12.96944566 16.25545189 12.96944566 15.75 10.375 C15.22254355 8.0687593 15.22254355 8.0687593 14 7 C11.66702567 6.95907063 9.33294775 6.95758277 7 7 Z " fill="#FFFFFF" transform="translate(1064,493)"/>
<path d="M0 0 C3.625 1.5 3.625 1.5 6 3 C5.01 4.98 4.02 6.96 3 9 C2.113125 8.649375 1.22625 8.29875 0.3125 7.9375 C-3.06203126 6.98244398 -4.69686152 7.02848868 -8 8 C-6.77861563 11.6641531 -5.96273559 11.81492961 -2.625 13.5 C2.95222609 16.3340302 2.95222609 16.3340302 5 19 C5.68987803 22.06995723 5.55805277 24.91174683 5 28 C2.99192954 31.1092704 1.51371604 32.53955406 -2.0546875 33.625 C-7.79129643 34.57779318 -11.80625657 33.50412629 -17 31 C-17.33 30.34 -17.66 29.68 -18 29 C-16.5625 26.375 -16.5625 26.375 -15 24 C-14.29875 24.33 -13.5975 24.66 -12.875 25 C-9.73996884 26.09044562 -7.29436818 26.15322643 -4 26 C-4 24.68 -4 23.36 -4 22 C-4.92232422 21.51080078 -4.92232422 21.51080078 -5.86328125 21.01171875 C-7.07564453 20.35623047 -7.07564453 20.35623047 -8.3125 19.6875 C-9.11300781 19.25824219 -9.91351562 18.82898438 -10.73828125 18.38671875 C-12.90632032 17.05743746 -14.45484935 16.01456351 -16 14 C-16.62262378 10.95419177 -16.51472236 8.0606609 -16 5 C-11.69674232 -0.73767691 -6.71752432 -0.61628663 0 0 Z " fill="#FFFFFF" transform="translate(868,493)"/>
<path d="M0 0 C2.3671875 1.0234375 2.3671875 1.0234375 4 2 C3.67 3.98 3.34 5.96 3 8 C2.01 8.33 1.02 8.66 0 9 C-0.66 8.67 -1.32 8.34 -2 8 C-6.96848641 7.53623432 -6.96848641 7.53623432 -11.375 9.5625 C-13.53538251 12.80307376 -13.93187446 15.11684403 -14 19 C-12.78392788 21.88017082 -11.69696456 23.45238499 -9.25 25.375 C-5.03831663 26.54491205 -1.05284204 25.35094735 3 24 C4.42944945 26.35438733 5.08661261 27.48032433 4.625 30.25 C4.315625 31.11625 4.315625 31.11625 4 32 C-1.585292 34.020212 -6.18823233 34.47146759 -12 33 C-17.09459883 30.26401174 -20.1667679 27.4996963 -22 22 C-22.69448865 14.85018246 -22.46194101 9.75355552 -18 4 C-12.84566685 -1.02547482 -6.81776147 -0.8166121 0 0 Z " fill="#FFFFFF" transform="translate(1494,493)"/>
<path d="M0 0 C2.3671875 1.0234375 2.3671875 1.0234375 4 2 C3.67 3.98 3.34 5.96 3 8 C2.01 8.33 1.02 8.66 0 9 C-0.66 8.67 -1.32 8.34 -2 8 C-6.96848641 7.53623432 -6.96848641 7.53623432 -11.375 9.5625 C-13.53538251 12.80307376 -13.93187446 15.11684403 -14 19 C-12.78392788 21.88017082 -11.69696456 23.45238499 -9.25 25.375 C-5.03831663 26.54491205 -1.05284204 25.35094735 3 24 C4.42944945 26.35438733 5.08661261 27.48032433 4.625 30.25 C4.315625 31.11625 4.315625 31.11625 4 32 C-1.585292 34.020212 -6.18823233 34.47146759 -12 33 C-17.09459883 30.26401174 -20.1667679 27.4996963 -22 22 C-22.69448865 14.85018246 -22.46194101 9.75355552 -18 4 C-12.84566685 -1.02547482 -6.81776147 -0.8166121 0 0 Z " fill="#FFFFFF" transform="translate(1251,493)"/>
<path d="M0 0 C2.97 0 5.94 0 9 0 C10.98 4.95 12.96 9.9 15 15 C17.00384991 11.99422513 18.26119742 9.15022736 19.625 5.8125 C20.07101562 4.72582031 20.51703125 3.63914062 20.9765625 2.51953125 C21.31429688 1.68808594 21.65203125 0.85664063 22 0 C24.97 0 27.94 0 31 0 C26.23070248 11.77420325 21.2158166 23.41682288 16 35 C12.80977537 33.40488768 12.0939537 30.11795208 10.7421875 26.97265625 C10.43427277 26.26854111 10.12635803 25.56442596 9.80911255 24.838974 C9.15884563 23.34818988 8.51178533 21.85600362 7.86767578 20.36254883 C6.8791934 18.07221618 5.8799119 15.78683591 4.87890625 13.50195312 C4.24935408 12.05496835 3.62042669 10.60771156 2.9921875 9.16015625 C2.5422493 8.13040428 2.5422493 8.13040428 2.08322144 7.07984924 C0 2.23165337 0 2.23165337 0 0 Z " fill="#FFFFFF" transform="translate(1012,493)"/>
<path d="M0 0 C2.97 0 5.94 0 9 0 C10.98 4.95 12.96 9.9 15 15 C17.00384991 11.99422513 18.26119742 9.15022736 19.625 5.8125 C20.07101562 4.72582031 20.51703125 3.63914062 20.9765625 2.51953125 C21.31429687 1.68808594 21.65203125 0.85664063 22 0 C24.97 0 27.94 0 31 0 C26.23070248 11.77420325 21.2158166 23.41682288 16 35 C12.80977537 33.40488768 12.0939537 30.11795208 10.7421875 26.97265625 C10.43427277 26.26854111 10.12635803 25.56442596 9.80911255 24.838974 C9.15884563 23.34818988 8.51178533 21.85600362 7.86767578 20.36254883 C6.8791934 18.07221618 5.8799119 15.78683591 4.87890625 13.50195312 C4.24935408 12.05496835 3.62042669 10.60771156 2.9921875 9.16015625 C2.5422493 8.13040428 2.5422493 8.13040428 2.08322144 7.07984924 C0 2.23165337 0 2.23165337 0 0 Z " fill="#FFFFFF" transform="translate(801,493)"/>
<path d="M0 0 C2.31 0 4.62 0 7 0 C7 8.58 7 17.16 7 26 C11.95 26 16.9 26 22 26 C22 28.31 22 30.62 22 33 C14.74 33 7.48 33 0 33 C0 22.11 0 11.22 0 0 Z " fill="#FFFFFF" transform="translate(1436,493)"/>
<path d="M0 0 C2.31 0 4.62 0 7 0 C7 8.58 7 17.16 7 26 C11.95 26 16.9 26 22 26 C22 28.31 22 30.62 22 33 C14.74 33 7.48 33 0 33 C0 22.11 0 11.22 0 0 Z " fill="#FFFFFF" transform="translate(1398,493)"/>
<path d="M0 0 C7.26 0 14.52 0 22 0 C22 2.31 22 4.62 22 7 C19.36 7 16.72 7 14 7 C14 15.58 14 24.16 14 33 C11.69 33 9.38 33 7 33 C7 24.42 7 15.84 7 7 C4.69 7 2.38 7 0 7 C0 4.69 0 2.38 0 0 Z " fill="#FFFFFF" transform="translate(1261,493)"/>
<path d="M0 0 C7.26 0 14.52 0 22 0 C22 2.31 22 4.62 22 7 C19.36 7 16.72 7 14 7 C14 15.58 14 24.16 14 33 C11.69 33 9.38 33 7 33 C7 24.42 7 15.84 7 7 C4.69 7 2.38 7 0 7 C0 4.69 0 2.38 0 0 Z " fill="#FFFFFF" transform="translate(986,493)"/>
<path d="M0 0 C2.31 0 4.62 0 7 0 C7 10.89 7 21.78 7 33 C4.69 33 2.38 33 0 33 C0 22.11 0 11.22 0 0 Z " fill="#FFFFFF" transform="translate(1290,493)"/>
<path d="M0 0 C2.31 0 4.62 0 7 0 C7 10.89 7 21.78 7 33 C4.69 33 2.38 33 0 33 C0 22.11 0 11.22 0 0 Z " fill="#FFFFFF" transform="translate(880,493)"/>
<path d="M0 0 C2.31 0 4.62 0 7 0 C7 10.89 7 21.78 7 33 C4.69 33 2.38 33 0 33 C0 22.11 0 11.22 0 0 Z " fill="#FFFFFF" transform="translate(838,493)"/>
<path d="M0 0 C2.625 0.375 2.625 0.375 5 1 C5.042721 2.66611905 5.04063832 4.33382885 5 6 C4 7 4 7 1.4375 7.0625 C0.2309375 7.0315625 0.2309375 7.0315625 -1 7 C-1.625 4.625 -1.625 4.625 -2 2 C-1.34 1.34 -0.68 0.68 0 0 Z " fill="#FFFFFF" transform="translate(1463,519)"/>
<path d="M0 0 C2.625 0.375 2.625 0.375 5 1 C5.042721 2.66611905 5.04063832 4.33382885 5 6 C4 7 4 7 1.4375 7.0625 C0.2309375 7.0315625 0.2309375 7.0315625 -1 7 C-1.625 4.625 -1.625 4.625 -2 2 C-1.34 1.34 -0.68 0.68 0 0 Z " fill="#FFFFFF" transform="translate(1426,519)"/>
<path d="M0 0 C0.66 0.33 1.32 0.66 2 1 C2 1.66 2 2.32 2 3 C1.01 3.33 0.02 3.66 -1 4 C-0.67 2.68 -0.34 1.36 0 0 Z " fill="#E6C26E" transform="translate(383,112)"/>
<path d="M0 0 C0.66 0.33 1.32 0.66 2 1 C0.02 1.99 0.02 1.99 -2 3 C-1.34 2.01 -0.68 1.02 0 0 Z " fill="#E6C26E" transform="translate(366,99)"/>
<path d="M0 0 C0.66 0 1.32 0 2 0 C2.33 0.99 2.66 1.98 3 3 C2.34 3 1.68 3 1 3 C0.67 2.01 0.34 1.02 0 0 Z " fill="#E6C26E" transform="translate(576,304)"/>
<path d="M0 0 C0.99 0.99 1.98 1.98 3 3 C2.01 2.67 1.02 2.34 0 2 C0 1.34 0 0.68 0 0 Z " fill="#E6C26E" transform="translate(408,125)"/>
<path d="M0 0 C0.99 0.33 1.98 0.66 3 1 C2.34 1.66 1.68 2.32 1 3 C0.67 2.01 0.34 1.02 0 0 Z " fill="#E6C26E" transform="translate(398,121)"/>
<path d="M0 0 C0.66 0.33 1.32 0.66 2 1 C1.01 1.66 0.02 2.32 -1 3 C-0.67 2.01 -0.34 1.02 0 0 Z " fill="#E6C26E" transform="translate(392,117)"/>
<path d="M0 0 C0.99 0.33 1.98 0.66 3 1 C2.01 1 1.02 1 0 1 C0 0.67 0 0.34 0 0 Z " fill="#E6C26E" transform="translate(431,142)"/>
<path d="M0 0 C0.66 0.66 1.32 1.32 2 2 C1.01 1.67 0.02 1.34 -1 1 C-0.67 0.67 -0.34 0.34 0 0 Z " fill="#E6C26E" transform="translate(385,115)"/>
<path d="M0 0 C0.66 0.33 1.32 0.66 2 1 C1.01 1 0.02 1 -1 1 C-0.67 0.67 -0.34 0.34 0 0 Z " fill="#E6C26E" transform="translate(369,102)"/>
<path d="" fill="#E6C26E" transform="translate(0,0)"/>
<path d="" fill="#E6C26E" transform="translate(0,0)"/>
<path d="M0 0 C2 1 2 1 2 1 Z " fill="#E6C26E" transform="translate(424,138)"/>
<path d="M0 0 C2 1 2 1 2 1 Z " fill="#E6C26E" transform="translate(389,117)"/>
<path d="" fill="#E6C26E" transform="translate(0,0)"/>
<path d="" fill="#E6C26E" transform="translate(0,0)"/>
<path d="" fill="#E6C26E" transform="translate(0,0)"/>
<path d="" fill="#E6C26E" transform="translate(0,0)"/>
<path d="" fill="#E6C26E" transform="translate(0,0)"/>
<path d="" fill="#E6C26E" transform="translate(0,0)"/>
<path d="" fill="#E6C26E" transform="translate(0,0)"/>
<path d="" fill="#E6C26E" transform="translate(0,0)"/>
<path d="" fill="#E6C26E" transform="translate(0,0)"/>
<path d="" fill="#E6C26E" transform="translate(0,0)"/>
<path d="" fill="#E6C26E" transform="translate(0,0)"/>
<path d="" fill="#E6C26E" transform="translate(0,0)"/>
<path d="" fill="#E6C26E" transform="translate(0,0)"/>
<path d="" fill="#E6C26E" transform="translate(0,0)"/>
<path d="" fill="#E6C26E" transform="translate(0,0)"/>
<path d="" fill="#E6C26E" transform="translate(0,0)"/>
<path d="" fill="#E6C26E" transform="translate(0,0)"/>
<path d="" fill="#E6C26E" transform="translate(0,0)"/>
<path d="" fill="#E6C26E" transform="translate(0,0)"/>
<path d="" fill="#E6C26E" transform="translate(0,0)"/>
<path d="" fill="#E6C26E" transform="translate(0,0)"/>
<path d="" fill="#E6C26E" transform="translate(0,0)"/>
<path d="" fill="#E6C26E" transform="translate(0,0)"/>
<path d="" fill="#E6C26E" transform="translate(0,0)"/>
</svg>
